<svg width="11" height="21" viewBox="0 0 11 21" fill="none" xmlns="http://www.w3.org/2000/svg">
<path d="M0.991955 0.465043C1.15619 0.461048 1.31296 0.521325 1.43158 0.635118L10.4489 9.22417C10.687 9.45091 10.8226 9.75657 10.8306 10.085C10.8386 10.4135 10.7188 10.7262 10.4921 10.9643L1.90222 19.9824C1.78927 20.1019 1.63562 20.1697 1.47138 20.1737C1.30714 20.1777 1.15038 20.1174 1.03175 20.0036C0.912328 19.8907 0.8445 19.737 0.840505 19.5728C0.836509 19.4085 0.896787 19.2518 1.01058 19.1331L9.59963 10.1158L0.582292 1.52676C0.462846 1.41299 0.395037 1.26016 0.391042 1.09592C0.387047 0.931682 0.447324 0.774917 0.561117 0.656293C0.67491 0.537669 0.827716 0.469039 0.991955 0.465043Z" fill="#1C2E47"/>
</svg>
