<svg width="18" height="22" viewBox="0 0 18 22" fill="none" xmlns="http://www.w3.org/2000/svg">
<path d="M17.4411 15.2217C16.0803 14.0715 15.3 12.3903 15.3 10.6092V8.1C15.3 4.9329 12.9474 2.3112 9.9 1.872V0.9C9.9 0.4023 9.4968 0 9 0C8.5032 0 8.1 0.4023 8.1 0.9V1.872C5.0517 2.3112 2.7 4.9329 2.7 8.1V10.6092C2.7 12.3903 1.9197 14.0715 0.5508 15.2289C0.2007 15.5286 0 15.9642 0 16.425C0 17.2935 0.7065 18 1.575 18H16.425C17.2935 18 18 17.2935 18 16.425C18 15.9642 17.7993 15.5286 17.4411 15.2217Z" fill="#416FB3"/>
<path d="M9.00191 21.5984C10.6318 21.5984 11.9953 20.4365 12.3085 18.8984H5.69531C6.00851 20.4365 7.37201 21.5984 9.00191 21.5984Z" fill="#416FB3"/>
</svg>
