<svg width="724" height="844" viewBox="0 0 624 844" fill="none" xmlns="http://www.w3.org/2000/svg">
	
	
	<style>
	@keyframes smallScale {
  from {
    transform: scale(1);
    opacity: 1;
  }
  to {
    transform: scale(1.1);
    opacity: 0;
  }
}
#wave{ webkit-animation: smallScale 2s infinite alternate;
    animation: smallScale 2s infinite alternate;
    transform-box: fill-box;
    transform-origin: center;
    position: absolute;}
	
	</style>
	
	
<circle id="wave" opacity="0.2" cx="312" cy="452" r="312" fill="#C8D5E8"/>
<ellipse opacity="0.2" cx="312" cy="451" rx="276" ry="275" fill="#A2B9D9"/>
<circle cx="312" cy="452" r="222" fill="#3E67A0"/>
<g opacity="0.3">
<circle cx="50.9266" cy="3.4077" r="2.92662" fill="#7DCAAE"/>
<circle cx="50.9266" cy="14.278" r="2.92662" fill="#7DCAAE"/>
<circle cx="50.9266" cy="25.1483" r="2.92662" fill="#7DCAAE"/>
<circle cx="50.9266" cy="36.0187" r="2.92662" fill="#7DCAAE"/>
<circle cx="50.9266" cy="46.889" r="2.92662" fill="#7DCAAE"/>
<circle cx="50.9266" cy="57.7593" r="2.92662" fill="#7DCAAE"/>
<circle cx="50.9266" cy="68.6296" r="2.92662" fill="#7DCAAE"/>
<circle cx="50.9266" cy="79.4999" r="2.92662" fill="#7DCAAE"/>
<circle cx="50.9266" cy="90.3702" r="2.92662" fill="#7DCAAE"/>
<circle cx="50.9266" cy="101.241" r="2.92662" fill="#7DCAAE"/>
<circle cx="50.9266" cy="112.111" r="2.92662" fill="#7DCAAE"/>
<circle cx="50.9266" cy="122.981" r="2.92662" fill="#7DCAAE"/>
<circle cx="50.9266" cy="133.851" r="2.92662" fill="#7DCAAE"/>
<circle cx="50.9266" cy="144.722" r="2.92662" fill="#7DCAAE"/>
<circle cx="50.9266" cy="155.592" r="2.92662" fill="#7DCAAE"/>
<circle cx="50.9266" cy="166.462" r="2.92662" fill="#7DCAAE"/>
<circle cx="50.9266" cy="177.333" r="2.92662" fill="#7DCAAE"/>
<circle cx="50.9266" cy="188.203" r="2.92662" fill="#7DCAAE"/>
<circle cx="50.9266" cy="199.073" r="2.92662" fill="#7DCAAE"/>
<circle cx="153.778" cy="3.4077" r="2.92662" fill="#7DCAAE"/>
<circle cx="153.778" cy="14.278" r="2.92662" fill="#7DCAAE"/>
<circle cx="153.778" cy="25.1483" r="2.92662" fill="#7DCAAE"/>
<circle cx="153.778" cy="36.0187" r="2.92662" fill="#7DCAAE"/>
<circle cx="153.778" cy="46.889" r="2.92662" fill="#7DCAAE"/>
<circle cx="153.778" cy="57.7593" r="2.92662" fill="#7DCAAE"/>
<circle cx="153.778" cy="68.6296" r="2.92662" fill="#7DCAAE"/>
<circle cx="153.778" cy="79.4999" r="2.92662" fill="#7DCAAE"/>
<circle cx="153.778" cy="90.3702" r="2.92662" fill="#7DCAAE"/>
<circle cx="153.778" cy="101.241" r="2.92662" fill="#7DCAAE"/>
<circle cx="153.778" cy="112.111" r="2.92662" fill="#7DCAAE"/>
<circle cx="153.778" cy="122.981" r="2.92662" fill="#7DCAAE"/>
<circle cx="153.778" cy="133.851" r="2.92662" fill="#7DCAAE"/>
<circle cx="153.778" cy="144.722" r="2.92662" fill="#7DCAAE"/>
<circle cx="153.778" cy="155.592" r="2.92662" fill="#7DCAAE"/>
<circle cx="153.778" cy="166.462" r="2.92662" fill="#7DCAAE"/>
<circle cx="153.778" cy="177.333" r="2.92662" fill="#7DCAAE"/>
<circle cx="153.778" cy="188.203" r="2.92662" fill="#7DCAAE"/>
<circle cx="153.778" cy="199.073" r="2.92662" fill="#7DCAAE"/>
<ellipse cx="62.2136" cy="3.4077" rx="2.50853" ry="2.92662" fill="#7DCAAE"/>
<ellipse cx="62.2136" cy="14.278" rx="2.50853" ry="2.92662" fill="#7DCAAE"/>
<ellipse cx="62.2136" cy="25.1483" rx="2.50853" ry="2.92662" fill="#7DCAAE"/>
<ellipse cx="62.2136" cy="36.0187" rx="2.50853" ry="2.92662" fill="#7DCAAE"/>
<ellipse cx="62.2136" cy="46.889" rx="2.50853" ry="2.92662" fill="#7DCAAE"/>
<ellipse cx="62.2136" cy="57.7593" rx="2.50853" ry="2.92662" fill="#7DCAAE"/>
<ellipse cx="62.2136" cy="68.6296" rx="2.50853" ry="2.92662" fill="#7DCAAE"/>
<ellipse cx="62.2136" cy="79.4999" rx="2.50853" ry="2.92662" fill="#7DCAAE"/>
<ellipse cx="62.2136" cy="90.3702" rx="2.50853" ry="2.92662" fill="#7DCAAE"/>
<ellipse cx="62.2136" cy="101.241" rx="2.50853" ry="2.92662" fill="#7DCAAE"/>
<ellipse cx="62.2136" cy="112.111" rx="2.50853" ry="2.92662" fill="#7DCAAE"/>
<ellipse cx="62.2136" cy="122.981" rx="2.50853" ry="2.92662" fill="#7DCAAE"/>
<ellipse cx="62.2136" cy="133.851" rx="2.50853" ry="2.92662" fill="#7DCAAE"/>
<ellipse cx="62.2136" cy="144.722" rx="2.50853" ry="2.92662" fill="#7DCAAE"/>
<ellipse cx="62.2136" cy="155.592" rx="2.50853" ry="2.92662" fill="#7DCAAE"/>
<ellipse cx="62.2136" cy="166.462" rx="2.50853" ry="2.92662" fill="#7DCAAE"/>
<ellipse cx="62.2136" cy="177.333" rx="2.50853" ry="2.92662" fill="#7DCAAE"/>
<ellipse cx="62.2136" cy="188.203" rx="2.50853" ry="2.92662" fill="#7DCAAE"/>
<ellipse cx="62.2136" cy="199.073" rx="2.50853" ry="2.92662" fill="#7DCAAE"/>
<ellipse cx="165.067" cy="3.4077" rx="2.50853" ry="2.92662" fill="#7DCAAE"/>
<ellipse cx="165.067" cy="14.278" rx="2.50853" ry="2.92662" fill="#7DCAAE"/>
<ellipse cx="165.067" cy="25.1483" rx="2.50853" ry="2.92662" fill="#7DCAAE"/>
<ellipse cx="165.067" cy="36.0187" rx="2.50853" ry="2.92662" fill="#7DCAAE"/>
<ellipse cx="165.067" cy="46.889" rx="2.50853" ry="2.92662" fill="#7DCAAE"/>
<ellipse cx="165.067" cy="57.7593" rx="2.50853" ry="2.92662" fill="#7DCAAE"/>
<ellipse cx="165.067" cy="68.6296" rx="2.50853" ry="2.92662" fill="#7DCAAE"/>
<ellipse cx="165.067" cy="79.4999" rx="2.50853" ry="2.92662" fill="#7DCAAE"/>
<ellipse cx="165.067" cy="90.3702" rx="2.50853" ry="2.92662" fill="#7DCAAE"/>
<ellipse cx="165.067" cy="101.241" rx="2.50853" ry="2.92662" fill="#7DCAAE"/>
<ellipse cx="165.067" cy="112.111" rx="2.50853" ry="2.92662" fill="#7DCAAE"/>
<ellipse cx="165.067" cy="122.981" rx="2.50853" ry="2.92662" fill="#7DCAAE"/>
<ellipse cx="165.067" cy="133.851" rx="2.50853" ry="2.92662" fill="#7DCAAE"/>
<ellipse cx="165.067" cy="144.722" rx="2.50853" ry="2.92662" fill="#7DCAAE"/>
<ellipse cx="165.067" cy="155.592" rx="2.50853" ry="2.92662" fill="#7DCAAE"/>
<ellipse cx="165.067" cy="166.462" rx="2.50853" ry="2.92662" fill="#7DCAAE"/>
<ellipse cx="165.067" cy="177.333" rx="2.50853" ry="2.92662" fill="#7DCAAE"/>
<ellipse cx="165.067" cy="188.203" rx="2.50853" ry="2.92662" fill="#7DCAAE"/>
<ellipse cx="165.067" cy="199.073" rx="2.50853" ry="2.92662" fill="#7DCAAE"/>
<circle cx="73.5028" cy="3.4077" r="2.92662" fill="#7DCAAE"/>
<circle cx="73.5028" cy="14.278" r="2.92662" fill="#7DCAAE"/>
<circle cx="73.5028" cy="25.1483" r="2.92662" fill="#7DCAAE"/>
<circle cx="73.5028" cy="36.0187" r="2.92662" fill="#7DCAAE"/>
<circle cx="73.5028" cy="46.889" r="2.92662" fill="#7DCAAE"/>
<circle cx="73.5028" cy="57.7593" r="2.92662" fill="#7DCAAE"/>
<circle cx="73.5028" cy="68.6296" r="2.92662" fill="#7DCAAE"/>
<circle cx="73.5028" cy="79.4999" r="2.92662" fill="#7DCAAE"/>
<circle cx="73.5028" cy="90.3702" r="2.92662" fill="#7DCAAE"/>
<circle cx="73.5028" cy="101.241" r="2.92662" fill="#7DCAAE"/>
<circle cx="73.5028" cy="112.111" r="2.92662" fill="#7DCAAE"/>
<circle cx="73.5028" cy="122.981" r="2.92662" fill="#7DCAAE"/>
<circle cx="73.5028" cy="133.851" r="2.92662" fill="#7DCAAE"/>
<circle cx="73.5028" cy="144.722" r="2.92662" fill="#7DCAAE"/>
<circle cx="73.5028" cy="155.592" r="2.92662" fill="#7DCAAE"/>
<circle cx="73.5028" cy="166.462" r="2.92662" fill="#7DCAAE"/>
<circle cx="73.5028" cy="177.333" r="2.92662" fill="#7DCAAE"/>
<circle cx="73.5028" cy="188.203" r="2.92662" fill="#7DCAAE"/>
<circle cx="73.5028" cy="199.073" r="2.92662" fill="#7DCAAE"/>
<circle cx="176.352" cy="3.4077" r="2.92662" fill="#7DCAAE"/>
<circle cx="176.352" cy="14.278" r="2.92662" fill="#7DCAAE"/>
<circle cx="176.352" cy="25.1483" r="2.92662" fill="#7DCAAE"/>
<circle cx="176.352" cy="36.0187" r="2.92662" fill="#7DCAAE"/>
<circle cx="176.352" cy="46.889" r="2.92662" fill="#7DCAAE"/>
<circle cx="176.352" cy="57.7593" r="2.92662" fill="#7DCAAE"/>
<circle cx="176.352" cy="68.6296" r="2.92662" fill="#7DCAAE"/>
<circle cx="176.352" cy="79.4999" r="2.92662" fill="#7DCAAE"/>
<circle cx="176.352" cy="90.3702" r="2.92662" fill="#7DCAAE"/>
<circle cx="176.352" cy="101.241" r="2.92662" fill="#7DCAAE"/>
<circle cx="176.352" cy="112.111" r="2.92662" fill="#7DCAAE"/>
<circle cx="176.352" cy="122.981" r="2.92662" fill="#7DCAAE"/>
<circle cx="176.352" cy="133.851" r="2.92662" fill="#7DCAAE"/>
<circle cx="176.352" cy="144.722" r="2.92662" fill="#7DCAAE"/>
<circle cx="176.352" cy="155.592" r="2.92662" fill="#7DCAAE"/>
<circle cx="176.352" cy="166.462" r="2.92662" fill="#7DCAAE"/>
<circle cx="176.352" cy="177.333" r="2.92662" fill="#7DCAAE"/>
<circle cx="176.352" cy="188.203" r="2.92662" fill="#7DCAAE"/>
<circle cx="176.352" cy="199.073" r="2.92662" fill="#7DCAAE"/>
<circle cx="85.2118" cy="3.4077" r="2.92662" fill="#7DCAAE"/>
<circle cx="85.2118" cy="14.278" r="2.92662" fill="#7DCAAE"/>
<circle cx="85.2118" cy="25.1483" r="2.92662" fill="#7DCAAE"/>
<circle cx="85.2118" cy="36.0187" r="2.92662" fill="#7DCAAE"/>
<circle cx="85.2118" cy="46.889" r="2.92662" fill="#7DCAAE"/>
<circle cx="85.2118" cy="57.7593" r="2.92662" fill="#7DCAAE"/>
<circle cx="85.2118" cy="68.6296" r="2.92662" fill="#7DCAAE"/>
<circle cx="85.2118" cy="79.4999" r="2.92662" fill="#7DCAAE"/>
<circle cx="85.2118" cy="90.3702" r="2.92662" fill="#7DCAAE"/>
<circle cx="85.2118" cy="101.241" r="2.92662" fill="#7DCAAE"/>
<circle cx="85.2118" cy="112.111" r="2.92662" fill="#7DCAAE"/>
<circle cx="85.2118" cy="122.981" r="2.92662" fill="#7DCAAE"/>
<circle cx="85.2118" cy="133.851" r="2.92662" fill="#7DCAAE"/>
<circle cx="85.2118" cy="144.722" r="2.92662" fill="#7DCAAE"/>
<circle cx="85.2118" cy="155.592" r="2.92662" fill="#7DCAAE"/>
<circle cx="85.2118" cy="166.462" r="2.92662" fill="#7DCAAE"/>
<circle cx="85.2118" cy="177.333" r="2.92662" fill="#7DCAAE"/>
<circle cx="85.2118" cy="188.203" r="2.92662" fill="#7DCAAE"/>
<circle cx="85.2118" cy="199.073" r="2.92662" fill="#7DCAAE"/>
<circle cx="188.061" cy="3.4077" r="2.92662" fill="#7DCAAE"/>
<circle cx="188.061" cy="14.278" r="2.92662" fill="#7DCAAE"/>
<circle cx="188.061" cy="25.1483" r="2.92662" fill="#7DCAAE"/>
<circle cx="188.061" cy="36.0187" r="2.92662" fill="#7DCAAE"/>
<circle cx="188.061" cy="46.889" r="2.92662" fill="#7DCAAE"/>
<circle cx="188.061" cy="57.7593" r="2.92662" fill="#7DCAAE"/>
<circle cx="188.061" cy="68.6296" r="2.92662" fill="#7DCAAE"/>
<circle cx="188.061" cy="79.4999" r="2.92662" fill="#7DCAAE"/>
<circle cx="188.061" cy="90.3702" r="2.92662" fill="#7DCAAE"/>
<circle cx="188.061" cy="101.241" r="2.92662" fill="#7DCAAE"/>
<circle cx="188.061" cy="112.111" r="2.92662" fill="#7DCAAE"/>
<circle cx="188.061" cy="122.981" r="2.92662" fill="#7DCAAE"/>
<circle cx="188.061" cy="133.851" r="2.92662" fill="#7DCAAE"/>
<circle cx="188.061" cy="144.722" r="2.92662" fill="#7DCAAE"/>
<circle cx="188.061" cy="155.592" r="2.92662" fill="#7DCAAE"/>
<circle cx="188.061" cy="166.462" r="2.92662" fill="#7DCAAE"/>
<circle cx="188.061" cy="177.333" r="2.92662" fill="#7DCAAE"/>
<circle cx="188.061" cy="188.203" r="2.92662" fill="#7DCAAE"/>
<circle cx="188.061" cy="199.073" r="2.92662" fill="#7DCAAE"/>
<ellipse cx="96.4988" cy="3.4077" rx="2.50853" ry="2.92662" fill="#7DCAAE"/>
<ellipse cx="96.4988" cy="14.278" rx="2.50853" ry="2.92662" fill="#7DCAAE"/>
<ellipse cx="96.4988" cy="25.1483" rx="2.50853" ry="2.92662" fill="#7DCAAE"/>
<ellipse cx="96.4988" cy="36.0187" rx="2.50853" ry="2.92662" fill="#7DCAAE"/>
<ellipse cx="96.4988" cy="46.889" rx="2.50853" ry="2.92662" fill="#7DCAAE"/>
<ellipse cx="96.4988" cy="57.7593" rx="2.50853" ry="2.92662" fill="#7DCAAE"/>
<ellipse cx="96.4988" cy="68.6296" rx="2.50853" ry="2.92662" fill="#7DCAAE"/>
<ellipse cx="96.4988" cy="79.4999" rx="2.50853" ry="2.92662" fill="#7DCAAE"/>
<ellipse cx="96.4988" cy="90.3702" rx="2.50853" ry="2.92662" fill="#7DCAAE"/>
<ellipse cx="96.4988" cy="101.241" rx="2.50853" ry="2.92662" fill="#7DCAAE"/>
<ellipse cx="96.4988" cy="112.111" rx="2.50853" ry="2.92662" fill="#7DCAAE"/>
<ellipse cx="96.4988" cy="122.981" rx="2.50853" ry="2.92662" fill="#7DCAAE"/>
<ellipse cx="96.4988" cy="133.851" rx="2.50853" ry="2.92662" fill="#7DCAAE"/>
<ellipse cx="96.4988" cy="144.722" rx="2.50853" ry="2.92662" fill="#7DCAAE"/>
<ellipse cx="96.4988" cy="155.592" rx="2.50853" ry="2.92662" fill="#7DCAAE"/>
<ellipse cx="96.4988" cy="166.462" rx="2.50853" ry="2.92662" fill="#7DCAAE"/>
<ellipse cx="96.4988" cy="177.333" rx="2.50853" ry="2.92662" fill="#7DCAAE"/>
<ellipse cx="96.4988" cy="188.203" rx="2.50853" ry="2.92662" fill="#7DCAAE"/>
<ellipse cx="96.4988" cy="199.073" rx="2.50853" ry="2.92662" fill="#7DCAAE"/>
<ellipse cx="199.348" cy="3.4077" rx="2.50853" ry="2.92662" fill="#7DCAAE"/>
<ellipse cx="199.348" cy="14.278" rx="2.50853" ry="2.92662" fill="#7DCAAE"/>
<ellipse cx="199.348" cy="25.1483" rx="2.50853" ry="2.92662" fill="#7DCAAE"/>
<ellipse cx="199.348" cy="36.0187" rx="2.50853" ry="2.92662" fill="#7DCAAE"/>
<ellipse cx="199.348" cy="46.889" rx="2.50853" ry="2.92662" fill="#7DCAAE"/>
<ellipse cx="199.348" cy="57.7593" rx="2.50853" ry="2.92662" fill="#7DCAAE"/>
<ellipse cx="199.348" cy="68.6296" rx="2.50853" ry="2.92662" fill="#7DCAAE"/>
<ellipse cx="199.348" cy="79.4999" rx="2.50853" ry="2.92662" fill="#7DCAAE"/>
<ellipse cx="199.348" cy="90.3702" rx="2.50853" ry="2.92662" fill="#7DCAAE"/>
<ellipse cx="199.348" cy="101.241" rx="2.50853" ry="2.92662" fill="#7DCAAE"/>
<ellipse cx="199.348" cy="112.111" rx="2.50853" ry="2.92662" fill="#7DCAAE"/>
<ellipse cx="199.348" cy="122.981" rx="2.50853" ry="2.92662" fill="#7DCAAE"/>
<ellipse cx="199.348" cy="133.851" rx="2.50853" ry="2.92662" fill="#7DCAAE"/>
<ellipse cx="199.348" cy="144.722" rx="2.50853" ry="2.92662" fill="#7DCAAE"/>
<ellipse cx="199.348" cy="155.592" rx="2.50853" ry="2.92662" fill="#7DCAAE"/>
<ellipse cx="199.348" cy="166.462" rx="2.50853" ry="2.92662" fill="#7DCAAE"/>
<ellipse cx="199.348" cy="177.333" rx="2.50853" ry="2.92662" fill="#7DCAAE"/>
<ellipse cx="199.348" cy="188.203" rx="2.50853" ry="2.92662" fill="#7DCAAE"/>
<ellipse cx="199.348" cy="199.073" rx="2.50853" ry="2.92662" fill="#7DCAAE"/>
<circle cx="107.788" cy="3.4077" r="2.92662" fill="#7DCAAE"/>
<circle cx="107.788" cy="14.278" r="2.92662" fill="#7DCAAE"/>
<circle cx="107.788" cy="25.1483" r="2.92662" fill="#7DCAAE"/>
<circle cx="107.788" cy="36.0187" r="2.92662" fill="#7DCAAE"/>
<circle cx="107.788" cy="46.889" r="2.92662" fill="#7DCAAE"/>
<circle cx="107.788" cy="57.7593" r="2.92662" fill="#7DCAAE"/>
<circle cx="107.788" cy="68.6296" r="2.92662" fill="#7DCAAE"/>
<circle cx="107.788" cy="79.4999" r="2.92662" fill="#7DCAAE"/>
<circle cx="107.788" cy="90.3702" r="2.92662" fill="#7DCAAE"/>
<circle cx="107.788" cy="101.241" r="2.92662" fill="#7DCAAE"/>
<circle cx="107.788" cy="112.111" r="2.92662" fill="#7DCAAE"/>
<circle cx="107.788" cy="122.981" r="2.92662" fill="#7DCAAE"/>
<circle cx="107.788" cy="133.851" r="2.92662" fill="#7DCAAE"/>
<circle cx="107.788" cy="144.722" r="2.92662" fill="#7DCAAE"/>
<circle cx="107.788" cy="155.592" r="2.92662" fill="#7DCAAE"/>
<circle cx="107.788" cy="166.462" r="2.92662" fill="#7DCAAE"/>
<circle cx="107.788" cy="177.333" r="2.92662" fill="#7DCAAE"/>
<circle cx="107.788" cy="188.203" r="2.92662" fill="#7DCAAE"/>
<circle cx="107.788" cy="199.073" r="2.92662" fill="#7DCAAE"/>
<circle cx="210.638" cy="3.4077" r="2.92662" fill="#7DCAAE"/>
<circle cx="210.638" cy="14.278" r="2.92662" fill="#7DCAAE"/>
<circle cx="210.638" cy="25.1483" r="2.92662" fill="#7DCAAE"/>
<circle cx="210.638" cy="36.0187" r="2.92662" fill="#7DCAAE"/>
<circle cx="210.638" cy="46.889" r="2.92662" fill="#7DCAAE"/>
<circle cx="210.638" cy="57.7593" r="2.92662" fill="#7DCAAE"/>
<circle cx="210.638" cy="68.6296" r="2.92662" fill="#7DCAAE"/>
<circle cx="210.638" cy="79.4999" r="2.92662" fill="#7DCAAE"/>
<circle cx="210.638" cy="90.3702" r="2.92662" fill="#7DCAAE"/>
<circle cx="210.638" cy="101.241" r="2.92662" fill="#7DCAAE"/>
<circle cx="210.638" cy="112.111" r="2.92662" fill="#7DCAAE"/>
<circle cx="210.638" cy="122.981" r="2.92662" fill="#7DCAAE"/>
<circle cx="210.638" cy="133.851" r="2.92662" fill="#7DCAAE"/>
<circle cx="210.638" cy="144.722" r="2.92662" fill="#7DCAAE"/>
<circle cx="210.638" cy="155.592" r="2.92662" fill="#7DCAAE"/>
<circle cx="210.638" cy="166.462" r="2.92662" fill="#7DCAAE"/>
<circle cx="210.638" cy="177.333" r="2.92662" fill="#7DCAAE"/>
<circle cx="210.638" cy="188.203" r="2.92662" fill="#7DCAAE"/>
<circle cx="210.638" cy="199.073" r="2.92662" fill="#7DCAAE"/>
<circle cx="119.493" cy="3.4077" r="2.92662" fill="#7DCAAE"/>
<circle cx="119.493" cy="14.278" r="2.92662" fill="#7DCAAE"/>
<circle cx="119.493" cy="25.1483" r="2.92662" fill="#7DCAAE"/>
<circle cx="119.493" cy="36.0187" r="2.92662" fill="#7DCAAE"/>
<circle cx="119.493" cy="46.889" r="2.92662" fill="#7DCAAE"/>
<circle cx="119.493" cy="57.7593" r="2.92662" fill="#7DCAAE"/>
<circle cx="119.493" cy="68.6296" r="2.92662" fill="#7DCAAE"/>
<circle cx="119.493" cy="79.4999" r="2.92662" fill="#7DCAAE"/>
<circle cx="119.493" cy="90.3702" r="2.92662" fill="#7DCAAE"/>
<circle cx="119.493" cy="101.241" r="2.92662" fill="#7DCAAE"/>
<circle cx="119.493" cy="112.111" r="2.92662" fill="#7DCAAE"/>
<circle cx="119.493" cy="122.981" r="2.92662" fill="#7DCAAE"/>
<circle cx="119.493" cy="133.851" r="2.92662" fill="#7DCAAE"/>
<circle cx="119.493" cy="144.722" r="2.92662" fill="#7DCAAE"/>
<circle cx="119.493" cy="155.592" r="2.92662" fill="#7DCAAE"/>
<circle cx="119.493" cy="166.462" r="2.92662" fill="#7DCAAE"/>
<circle cx="119.493" cy="177.333" r="2.92662" fill="#7DCAAE"/>
<circle cx="119.493" cy="188.203" r="2.92662" fill="#7DCAAE"/>
<circle cx="119.493" cy="199.073" r="2.92662" fill="#7DCAAE"/>
<circle cx="222.343" cy="3.4077" r="2.92662" fill="#7DCAAE"/>
<circle cx="222.343" cy="14.278" r="2.92662" fill="#7DCAAE"/>
<circle cx="222.343" cy="25.1483" r="2.92662" fill="#7DCAAE"/>
<circle cx="222.343" cy="36.0187" r="2.92662" fill="#7DCAAE"/>
<circle cx="222.343" cy="46.889" r="2.92662" fill="#7DCAAE"/>
<circle cx="222.343" cy="57.7593" r="2.92662" fill="#7DCAAE"/>
<circle cx="222.343" cy="68.6296" r="2.92662" fill="#7DCAAE"/>
<circle cx="222.343" cy="79.4999" r="2.92662" fill="#7DCAAE"/>
<circle cx="222.343" cy="90.3702" r="2.92662" fill="#7DCAAE"/>
<circle cx="222.343" cy="101.241" r="2.92662" fill="#7DCAAE"/>
<circle cx="222.343" cy="112.111" r="2.92662" fill="#7DCAAE"/>
<circle cx="222.343" cy="122.981" r="2.92662" fill="#7DCAAE"/>
<circle cx="222.343" cy="133.851" r="2.92662" fill="#7DCAAE"/>
<circle cx="222.343" cy="144.722" r="2.92662" fill="#7DCAAE"/>
<circle cx="222.343" cy="155.592" r="2.92662" fill="#7DCAAE"/>
<circle cx="222.343" cy="166.462" r="2.92662" fill="#7DCAAE"/>
<circle cx="222.343" cy="177.333" r="2.92662" fill="#7DCAAE"/>
<circle cx="222.343" cy="188.203" r="2.92662" fill="#7DCAAE"/>
<circle cx="222.343" cy="199.073" r="2.92662" fill="#7DCAAE"/>
<ellipse cx="130.782" cy="3.4077" rx="2.50853" ry="2.92662" fill="#7DCAAE"/>
<ellipse cx="130.782" cy="14.278" rx="2.50853" ry="2.92662" fill="#7DCAAE"/>
<ellipse cx="130.782" cy="25.1483" rx="2.50853" ry="2.92662" fill="#7DCAAE"/>
<ellipse cx="130.782" cy="36.0187" rx="2.50853" ry="2.92662" fill="#7DCAAE"/>
<ellipse cx="130.782" cy="46.889" rx="2.50853" ry="2.92662" fill="#7DCAAE"/>
<ellipse cx="130.782" cy="57.7593" rx="2.50853" ry="2.92662" fill="#7DCAAE"/>
<ellipse cx="130.782" cy="68.6296" rx="2.50853" ry="2.92662" fill="#7DCAAE"/>
<ellipse cx="130.782" cy="79.4999" rx="2.50853" ry="2.92662" fill="#7DCAAE"/>
<ellipse cx="130.782" cy="90.3702" rx="2.50853" ry="2.92662" fill="#7DCAAE"/>
<ellipse cx="130.782" cy="101.241" rx="2.50853" ry="2.92662" fill="#7DCAAE"/>
<ellipse cx="130.782" cy="112.111" rx="2.50853" ry="2.92662" fill="#7DCAAE"/>
<ellipse cx="130.782" cy="122.981" rx="2.50853" ry="2.92662" fill="#7DCAAE"/>
<ellipse cx="130.782" cy="133.851" rx="2.50853" ry="2.92662" fill="#7DCAAE"/>
<ellipse cx="130.782" cy="144.722" rx="2.50853" ry="2.92662" fill="#7DCAAE"/>
<ellipse cx="130.782" cy="155.592" rx="2.50853" ry="2.92662" fill="#7DCAAE"/>
<ellipse cx="130.782" cy="166.462" rx="2.50853" ry="2.92662" fill="#7DCAAE"/>
<ellipse cx="130.782" cy="177.333" rx="2.50853" ry="2.92662" fill="#7DCAAE"/>
<ellipse cx="130.782" cy="188.203" rx="2.50853" ry="2.92662" fill="#7DCAAE"/>
<ellipse cx="130.782" cy="199.073" rx="2.50853" ry="2.92662" fill="#7DCAAE"/>
<ellipse cx="233.634" cy="3.4077" rx="2.50853" ry="2.92662" fill="#7DCAAE"/>
<ellipse cx="233.634" cy="14.278" rx="2.50853" ry="2.92662" fill="#7DCAAE"/>
<ellipse cx="233.634" cy="25.1483" rx="2.50853" ry="2.92662" fill="#7DCAAE"/>
<ellipse cx="233.634" cy="36.0187" rx="2.50853" ry="2.92662" fill="#7DCAAE"/>
<ellipse cx="233.634" cy="46.889" rx="2.50853" ry="2.92662" fill="#7DCAAE"/>
<ellipse cx="233.634" cy="57.7593" rx="2.50853" ry="2.92662" fill="#7DCAAE"/>
<ellipse cx="233.634" cy="68.6296" rx="2.50853" ry="2.92662" fill="#7DCAAE"/>
<ellipse cx="233.634" cy="79.4999" rx="2.50853" ry="2.92662" fill="#7DCAAE"/>
<ellipse cx="233.634" cy="90.3702" rx="2.50853" ry="2.92662" fill="#7DCAAE"/>
<ellipse cx="233.634" cy="101.241" rx="2.50853" ry="2.92662" fill="#7DCAAE"/>
<ellipse cx="233.634" cy="112.111" rx="2.50853" ry="2.92662" fill="#7DCAAE"/>
<ellipse cx="233.634" cy="122.981" rx="2.50853" ry="2.92662" fill="#7DCAAE"/>
<ellipse cx="233.634" cy="133.851" rx="2.50853" ry="2.92662" fill="#7DCAAE"/>
<ellipse cx="233.634" cy="144.722" rx="2.50853" ry="2.92662" fill="#7DCAAE"/>
<ellipse cx="233.634" cy="155.592" rx="2.50853" ry="2.92662" fill="#7DCAAE"/>
<ellipse cx="233.634" cy="166.462" rx="2.50853" ry="2.92662" fill="#7DCAAE"/>
<ellipse cx="233.634" cy="177.333" rx="2.50853" ry="2.92662" fill="#7DCAAE"/>
<ellipse cx="233.634" cy="188.203" rx="2.50853" ry="2.92662" fill="#7DCAAE"/>
<ellipse cx="233.634" cy="199.073" rx="2.50853" ry="2.92662" fill="#7DCAAE"/>
<circle cx="142.069" cy="3.4077" r="2.92662" fill="#7DCAAE"/>
<circle cx="142.069" cy="14.278" r="2.92662" fill="#7DCAAE"/>
<circle cx="142.069" cy="25.1483" r="2.92662" fill="#7DCAAE"/>
<circle cx="142.069" cy="36.0187" r="2.92662" fill="#7DCAAE"/>
<circle cx="142.069" cy="46.889" r="2.92662" fill="#7DCAAE"/>
<circle cx="142.069" cy="57.7593" r="2.92662" fill="#7DCAAE"/>
<circle cx="142.069" cy="68.6296" r="2.92662" fill="#7DCAAE"/>
<circle cx="142.069" cy="79.4999" r="2.92662" fill="#7DCAAE"/>
<circle cx="142.069" cy="90.3702" r="2.92662" fill="#7DCAAE"/>
<circle cx="142.069" cy="101.241" r="2.92662" fill="#7DCAAE"/>
<circle cx="142.069" cy="112.111" r="2.92662" fill="#7DCAAE"/>
<circle cx="142.069" cy="122.981" r="2.92662" fill="#7DCAAE"/>
<circle cx="142.069" cy="133.851" r="2.92662" fill="#7DCAAE"/>
<circle cx="142.069" cy="144.722" r="2.92662" fill="#7DCAAE"/>
<circle cx="142.069" cy="155.592" r="2.92662" fill="#7DCAAE"/>
<circle cx="142.069" cy="166.462" r="2.92662" fill="#7DCAAE"/>
<circle cx="142.069" cy="177.333" r="2.92662" fill="#7DCAAE"/>
<circle cx="142.069" cy="188.203" r="2.92662" fill="#7DCAAE"/>
<circle cx="142.069" cy="199.073" r="2.92662" fill="#7DCAAE"/>
<circle cx="244.919" cy="3.4077" r="2.92662" fill="#7DCAAE"/>
<circle cx="244.919" cy="14.278" r="2.92662" fill="#7DCAAE"/>
<circle cx="244.919" cy="25.1483" r="2.92662" fill="#7DCAAE"/>
<circle cx="244.919" cy="36.0187" r="2.92662" fill="#7DCAAE"/>
<circle cx="244.919" cy="46.889" r="2.92662" fill="#7DCAAE"/>
<circle cx="244.919" cy="57.7593" r="2.92662" fill="#7DCAAE"/>
<circle cx="244.919" cy="68.6296" r="2.92662" fill="#7DCAAE"/>
<circle cx="244.919" cy="79.4999" r="2.92662" fill="#7DCAAE"/>
<circle cx="244.919" cy="90.3702" r="2.92662" fill="#7DCAAE"/>
<circle cx="244.919" cy="101.241" r="2.92662" fill="#7DCAAE"/>
<circle cx="244.919" cy="112.111" r="2.92662" fill="#7DCAAE"/>
<circle cx="244.919" cy="122.981" r="2.92662" fill="#7DCAAE"/>
<circle cx="244.919" cy="133.851" r="2.92662" fill="#7DCAAE"/>
<circle cx="244.919" cy="144.722" r="2.92662" fill="#7DCAAE"/>
<circle cx="244.919" cy="155.592" r="2.92662" fill="#7DCAAE"/>
<circle cx="244.919" cy="166.462" r="2.92662" fill="#7DCAAE"/>
<circle cx="244.919" cy="177.333" r="2.92662" fill="#7DCAAE"/>
<circle cx="244.919" cy="188.203" r="2.92662" fill="#7DCAAE"/>
<circle cx="244.919" cy="199.073" r="2.92662" fill="#7DCAAE"/>
</g>
<g opacity="0.3">
<circle cx="415.094" cy="701.094" r="2.09415" fill="#FCC60E"/>
<circle cx="415.094" cy="708.872" r="2.09415" fill="#FCC60E"/>
<circle cx="415.094" cy="716.651" r="2.09415" fill="#FCC60E"/>
<circle cx="415.094" cy="724.429" r="2.09415" fill="#FCC60E"/>
<circle cx="415.094" cy="732.207" r="2.09415" fill="#FCC60E"/>
<circle cx="415.094" cy="739.986" r="2.09415" fill="#FCC60E"/>
<circle cx="415.094" cy="747.764" r="2.09415" fill="#FCC60E"/>
<circle cx="415.094" cy="755.542" r="2.09415" fill="#FCC60E"/>
<circle cx="415.094" cy="763.32" r="2.09415" fill="#FCC60E"/>
<circle cx="415.094" cy="771.099" r="2.09415" fill="#FCC60E"/>
<circle cx="415.094" cy="778.877" r="2.09415" fill="#FCC60E"/>
<circle cx="415.094" cy="786.655" r="2.09415" fill="#FCC60E"/>
<circle cx="415.094" cy="794.433" r="2.09415" fill="#FCC60E"/>
<circle cx="415.094" cy="802.212" r="2.09415" fill="#FCC60E"/>
<circle cx="415.094" cy="809.99" r="2.09415" fill="#FCC60E"/>
<circle cx="415.094" cy="817.768" r="2.09415" fill="#FCC60E"/>
<circle cx="415.094" cy="825.547" r="2.09415" fill="#FCC60E"/>
<circle cx="415.094" cy="833.325" r="2.09415" fill="#FCC60E"/>
<circle cx="415.094" cy="841.103" r="2.09415" fill="#FCC60E"/>
<circle cx="488.69" cy="701.094" r="2.09415" fill="#FCC60E"/>
<circle cx="488.69" cy="708.872" r="2.09415" fill="#FCC60E"/>
<circle cx="488.69" cy="716.651" r="2.09415" fill="#FCC60E"/>
<circle cx="488.69" cy="724.429" r="2.09415" fill="#FCC60E"/>
<circle cx="488.69" cy="732.207" r="2.09415" fill="#FCC60E"/>
<circle cx="488.69" cy="739.986" r="2.09415" fill="#FCC60E"/>
<circle cx="488.69" cy="747.764" r="2.09415" fill="#FCC60E"/>
<circle cx="488.69" cy="755.542" r="2.09415" fill="#FCC60E"/>
<circle cx="488.69" cy="763.32" r="2.09415" fill="#FCC60E"/>
<circle cx="488.69" cy="771.099" r="2.09415" fill="#FCC60E"/>
<circle cx="488.69" cy="778.877" r="2.09415" fill="#FCC60E"/>
<circle cx="488.69" cy="786.655" r="2.09415" fill="#FCC60E"/>
<circle cx="488.69" cy="794.433" r="2.09415" fill="#FCC60E"/>
<circle cx="488.69" cy="802.212" r="2.09415" fill="#FCC60E"/>
<circle cx="488.69" cy="809.99" r="2.09415" fill="#FCC60E"/>
<circle cx="488.69" cy="817.768" r="2.09415" fill="#FCC60E"/>
<circle cx="488.69" cy="825.547" r="2.09415" fill="#FCC60E"/>
<circle cx="488.69" cy="833.325" r="2.09415" fill="#FCC60E"/>
<circle cx="488.69" cy="841.103" r="2.09415" fill="#FCC60E"/>
<ellipse cx="423.17" cy="701.094" rx="1.79499" ry="2.09415" fill="#FCC60E"/>
<ellipse cx="423.17" cy="708.872" rx="1.79499" ry="2.09415" fill="#FCC60E"/>
<ellipse cx="423.17" cy="716.651" rx="1.79499" ry="2.09415" fill="#FCC60E"/>
<ellipse cx="423.17" cy="724.429" rx="1.79499" ry="2.09415" fill="#FCC60E"/>
<ellipse cx="423.17" cy="732.207" rx="1.79499" ry="2.09415" fill="#FCC60E"/>
<ellipse cx="423.17" cy="739.986" rx="1.79499" ry="2.09415" fill="#FCC60E"/>
<ellipse cx="423.17" cy="747.764" rx="1.79499" ry="2.09415" fill="#FCC60E"/>
<ellipse cx="423.17" cy="755.542" rx="1.79499" ry="2.09415" fill="#FCC60E"/>
<ellipse cx="423.17" cy="763.32" rx="1.79499" ry="2.09415" fill="#FCC60E"/>
<ellipse cx="423.17" cy="771.099" rx="1.79499" ry="2.09415" fill="#FCC60E"/>
<ellipse cx="423.17" cy="778.877" rx="1.79499" ry="2.09415" fill="#FCC60E"/>
<ellipse cx="423.17" cy="786.655" rx="1.79499" ry="2.09415" fill="#FCC60E"/>
<ellipse cx="423.17" cy="794.433" rx="1.79499" ry="2.09415" fill="#FCC60E"/>
<ellipse cx="423.17" cy="802.212" rx="1.79499" ry="2.09415" fill="#FCC60E"/>
<ellipse cx="423.17" cy="809.99" rx="1.79499" ry="2.09415" fill="#FCC60E"/>
<ellipse cx="423.17" cy="817.768" rx="1.79499" ry="2.09415" fill="#FCC60E"/>
<ellipse cx="423.17" cy="825.547" rx="1.79499" ry="2.09415" fill="#FCC60E"/>
<ellipse cx="423.17" cy="833.325" rx="1.79499" ry="2.09415" fill="#FCC60E"/>
<ellipse cx="423.17" cy="841.103" rx="1.79499" ry="2.09415" fill="#FCC60E"/>
<ellipse cx="496.768" cy="701.094" rx="1.79499" ry="2.09415" fill="#FCC60E"/>
<ellipse cx="496.768" cy="708.872" rx="1.79499" ry="2.09415" fill="#FCC60E"/>
<ellipse cx="496.768" cy="716.651" rx="1.79499" ry="2.09415" fill="#FCC60E"/>
<ellipse cx="496.768" cy="724.429" rx="1.79499" ry="2.09415" fill="#FCC60E"/>
<ellipse cx="496.768" cy="732.207" rx="1.79499" ry="2.09415" fill="#FCC60E"/>
<ellipse cx="496.768" cy="739.986" rx="1.79499" ry="2.09415" fill="#FCC60E"/>
<ellipse cx="496.768" cy="747.764" rx="1.79499" ry="2.09415" fill="#FCC60E"/>
<ellipse cx="496.768" cy="755.542" rx="1.79499" ry="2.09415" fill="#FCC60E"/>
<ellipse cx="496.768" cy="763.32" rx="1.79499" ry="2.09415" fill="#FCC60E"/>
<ellipse cx="496.768" cy="771.099" rx="1.79499" ry="2.09415" fill="#FCC60E"/>
<ellipse cx="496.768" cy="778.877" rx="1.79499" ry="2.09415" fill="#FCC60E"/>
<ellipse cx="496.768" cy="786.655" rx="1.79499" ry="2.09415" fill="#FCC60E"/>
<ellipse cx="496.768" cy="794.433" rx="1.79499" ry="2.09415" fill="#FCC60E"/>
<ellipse cx="496.768" cy="802.212" rx="1.79499" ry="2.09415" fill="#FCC60E"/>
<ellipse cx="496.768" cy="809.99" rx="1.79499" ry="2.09415" fill="#FCC60E"/>
<ellipse cx="496.768" cy="817.768" rx="1.79499" ry="2.09415" fill="#FCC60E"/>
<ellipse cx="496.768" cy="825.547" rx="1.79499" ry="2.09415" fill="#FCC60E"/>
<ellipse cx="496.768" cy="833.325" rx="1.79499" ry="2.09415" fill="#FCC60E"/>
<ellipse cx="496.768" cy="841.103" rx="1.79499" ry="2.09415" fill="#FCC60E"/>
<circle cx="431.248" cy="701.094" r="2.09415" fill="#FCC60E"/>
<circle cx="431.248" cy="708.872" r="2.09415" fill="#FCC60E"/>
<circle cx="431.248" cy="716.651" r="2.09415" fill="#FCC60E"/>
<circle cx="431.248" cy="724.429" r="2.09415" fill="#FCC60E"/>
<circle cx="431.248" cy="732.207" r="2.09415" fill="#FCC60E"/>
<circle cx="431.248" cy="739.986" r="2.09415" fill="#FCC60E"/>
<circle cx="431.248" cy="747.764" r="2.09415" fill="#FCC60E"/>
<circle cx="431.248" cy="755.542" r="2.09415" fill="#FCC60E"/>
<circle cx="431.248" cy="763.32" r="2.09415" fill="#FCC60E"/>
<circle cx="431.248" cy="771.099" r="2.09415" fill="#FCC60E"/>
<circle cx="431.248" cy="778.877" r="2.09415" fill="#FCC60E"/>
<circle cx="431.248" cy="786.655" r="2.09415" fill="#FCC60E"/>
<circle cx="431.248" cy="794.433" r="2.09415" fill="#FCC60E"/>
<circle cx="431.248" cy="802.212" r="2.09415" fill="#FCC60E"/>
<circle cx="431.248" cy="809.99" r="2.09415" fill="#FCC60E"/>
<circle cx="431.248" cy="817.768" r="2.09415" fill="#FCC60E"/>
<circle cx="431.248" cy="825.547" r="2.09415" fill="#FCC60E"/>
<circle cx="431.248" cy="833.325" r="2.09415" fill="#FCC60E"/>
<circle cx="431.248" cy="841.103" r="2.09415" fill="#FCC60E"/>
<circle cx="504.842" cy="701.094" r="2.09415" fill="#FCC60E"/>
<circle cx="504.842" cy="708.872" r="2.09415" fill="#FCC60E"/>
<circle cx="504.842" cy="716.651" r="2.09415" fill="#FCC60E"/>
<circle cx="504.842" cy="724.429" r="2.09415" fill="#FCC60E"/>
<circle cx="504.842" cy="732.207" r="2.09415" fill="#FCC60E"/>
<circle cx="504.842" cy="739.986" r="2.09415" fill="#FCC60E"/>
<circle cx="504.842" cy="747.764" r="2.09415" fill="#FCC60E"/>
<circle cx="504.842" cy="755.542" r="2.09415" fill="#FCC60E"/>
<circle cx="504.842" cy="763.32" r="2.09415" fill="#FCC60E"/>
<circle cx="504.842" cy="771.099" r="2.09415" fill="#FCC60E"/>
<circle cx="504.842" cy="778.877" r="2.09415" fill="#FCC60E"/>
<circle cx="504.842" cy="786.655" r="2.09415" fill="#FCC60E"/>
<circle cx="504.842" cy="794.433" r="2.09415" fill="#FCC60E"/>
<circle cx="504.842" cy="802.212" r="2.09415" fill="#FCC60E"/>
<circle cx="504.842" cy="809.99" r="2.09415" fill="#FCC60E"/>
<circle cx="504.842" cy="817.768" r="2.09415" fill="#FCC60E"/>
<circle cx="504.842" cy="825.547" r="2.09415" fill="#FCC60E"/>
<circle cx="504.842" cy="833.325" r="2.09415" fill="#FCC60E"/>
<circle cx="504.842" cy="841.103" r="2.09415" fill="#FCC60E"/>
<circle cx="439.627" cy="701.094" r="2.09415" fill="#FCC60E"/>
<circle cx="439.627" cy="708.872" r="2.09415" fill="#FCC60E"/>
<circle cx="439.627" cy="716.651" r="2.09415" fill="#FCC60E"/>
<circle cx="439.627" cy="724.429" r="2.09415" fill="#FCC60E"/>
<circle cx="439.627" cy="732.207" r="2.09415" fill="#FCC60E"/>
<circle cx="439.627" cy="739.986" r="2.09415" fill="#FCC60E"/>
<circle cx="439.627" cy="747.764" r="2.09415" fill="#FCC60E"/>
<circle cx="439.627" cy="755.542" r="2.09415" fill="#FCC60E"/>
<circle cx="439.627" cy="763.32" r="2.09415" fill="#FCC60E"/>
<circle cx="439.627" cy="771.099" r="2.09415" fill="#FCC60E"/>
<circle cx="439.627" cy="778.877" r="2.09415" fill="#FCC60E"/>
<circle cx="439.627" cy="786.655" r="2.09415" fill="#FCC60E"/>
<circle cx="439.627" cy="794.433" r="2.09415" fill="#FCC60E"/>
<circle cx="439.627" cy="802.212" r="2.09415" fill="#FCC60E"/>
<circle cx="439.627" cy="809.99" r="2.09415" fill="#FCC60E"/>
<circle cx="439.627" cy="817.768" r="2.09415" fill="#FCC60E"/>
<circle cx="439.627" cy="825.547" r="2.09415" fill="#FCC60E"/>
<circle cx="439.627" cy="833.325" r="2.09415" fill="#FCC60E"/>
<circle cx="439.627" cy="841.103" r="2.09415" fill="#FCC60E"/>
<circle cx="513.221" cy="701.094" r="2.09415" fill="#FCC60E"/>
<circle cx="513.221" cy="708.872" r="2.09415" fill="#FCC60E"/>
<circle cx="513.221" cy="716.651" r="2.09415" fill="#FCC60E"/>
<circle cx="513.221" cy="724.429" r="2.09415" fill="#FCC60E"/>
<circle cx="513.221" cy="732.207" r="2.09415" fill="#FCC60E"/>
<circle cx="513.221" cy="739.986" r="2.09415" fill="#FCC60E"/>
<circle cx="513.221" cy="747.764" r="2.09415" fill="#FCC60E"/>
<circle cx="513.221" cy="755.542" r="2.09415" fill="#FCC60E"/>
<circle cx="513.221" cy="763.32" r="2.09415" fill="#FCC60E"/>
<circle cx="513.221" cy="771.099" r="2.09415" fill="#FCC60E"/>
<circle cx="513.221" cy="778.877" r="2.09415" fill="#FCC60E"/>
<circle cx="513.221" cy="786.655" r="2.09415" fill="#FCC60E"/>
<circle cx="513.221" cy="794.433" r="2.09415" fill="#FCC60E"/>
<circle cx="513.221" cy="802.212" r="2.09415" fill="#FCC60E"/>
<circle cx="513.221" cy="809.99" r="2.09415" fill="#FCC60E"/>
<circle cx="513.221" cy="817.768" r="2.09415" fill="#FCC60E"/>
<circle cx="513.221" cy="825.547" r="2.09415" fill="#FCC60E"/>
<circle cx="513.221" cy="833.325" r="2.09415" fill="#FCC60E"/>
<circle cx="513.221" cy="841.103" r="2.09415" fill="#FCC60E"/>
<ellipse cx="447.703" cy="701.094" rx="1.79499" ry="2.09415" fill="#FCC60E"/>
<ellipse cx="447.703" cy="708.872" rx="1.79499" ry="2.09415" fill="#FCC60E"/>
<ellipse cx="447.703" cy="716.651" rx="1.79499" ry="2.09415" fill="#FCC60E"/>
<ellipse cx="447.703" cy="724.429" rx="1.79499" ry="2.09415" fill="#FCC60E"/>
<ellipse cx="447.703" cy="732.207" rx="1.79499" ry="2.09415" fill="#FCC60E"/>
<ellipse cx="447.703" cy="739.986" rx="1.79499" ry="2.09415" fill="#FCC60E"/>
<ellipse cx="447.703" cy="747.764" rx="1.79499" ry="2.09415" fill="#FCC60E"/>
<ellipse cx="447.703" cy="755.542" rx="1.79499" ry="2.09415" fill="#FCC60E"/>
<ellipse cx="447.703" cy="763.32" rx="1.79499" ry="2.09415" fill="#FCC60E"/>
<ellipse cx="447.703" cy="771.099" rx="1.79499" ry="2.09415" fill="#FCC60E"/>
<ellipse cx="447.703" cy="778.877" rx="1.79499" ry="2.09415" fill="#FCC60E"/>
<ellipse cx="447.703" cy="786.655" rx="1.79499" ry="2.09415" fill="#FCC60E"/>
<ellipse cx="447.703" cy="794.433" rx="1.79499" ry="2.09415" fill="#FCC60E"/>
<ellipse cx="447.703" cy="802.212" rx="1.79499" ry="2.09415" fill="#FCC60E"/>
<ellipse cx="447.703" cy="809.99" rx="1.79499" ry="2.09415" fill="#FCC60E"/>
<ellipse cx="447.703" cy="817.768" rx="1.79499" ry="2.09415" fill="#FCC60E"/>
<ellipse cx="447.703" cy="825.547" rx="1.79499" ry="2.09415" fill="#FCC60E"/>
<ellipse cx="447.703" cy="833.325" rx="1.79499" ry="2.09415" fill="#FCC60E"/>
<ellipse cx="447.703" cy="841.103" rx="1.79499" ry="2.09415" fill="#FCC60E"/>
<ellipse cx="521.297" cy="701.094" rx="1.79499" ry="2.09415" fill="#FCC60E"/>
<ellipse cx="521.297" cy="708.872" rx="1.79499" ry="2.09415" fill="#FCC60E"/>
<ellipse cx="521.297" cy="716.651" rx="1.79499" ry="2.09415" fill="#FCC60E"/>
<ellipse cx="521.297" cy="724.429" rx="1.79499" ry="2.09415" fill="#FCC60E"/>
<ellipse cx="521.297" cy="732.207" rx="1.79499" ry="2.09415" fill="#FCC60E"/>
<ellipse cx="521.297" cy="739.986" rx="1.79499" ry="2.09415" fill="#FCC60E"/>
<ellipse cx="521.297" cy="747.764" rx="1.79499" ry="2.09415" fill="#FCC60E"/>
<ellipse cx="521.297" cy="755.542" rx="1.79499" ry="2.09415" fill="#FCC60E"/>
<ellipse cx="521.297" cy="763.32" rx="1.79499" ry="2.09415" fill="#FCC60E"/>
<ellipse cx="521.297" cy="771.099" rx="1.79499" ry="2.09415" fill="#FCC60E"/>
<ellipse cx="521.297" cy="778.877" rx="1.79499" ry="2.09415" fill="#FCC60E"/>
<ellipse cx="521.297" cy="786.655" rx="1.79499" ry="2.09415" fill="#FCC60E"/>
<ellipse cx="521.297" cy="794.433" rx="1.79499" ry="2.09415" fill="#FCC60E"/>
<ellipse cx="521.297" cy="802.212" rx="1.79499" ry="2.09415" fill="#FCC60E"/>
<ellipse cx="521.297" cy="809.99" rx="1.79499" ry="2.09415" fill="#FCC60E"/>
<ellipse cx="521.297" cy="817.768" rx="1.79499" ry="2.09415" fill="#FCC60E"/>
<ellipse cx="521.297" cy="825.547" rx="1.79499" ry="2.09415" fill="#FCC60E"/>
<ellipse cx="521.297" cy="833.325" rx="1.79499" ry="2.09415" fill="#FCC60E"/>
<ellipse cx="521.297" cy="841.103" rx="1.79499" ry="2.09415" fill="#FCC60E"/>
<circle cx="455.782" cy="701.094" r="2.09415" fill="#FCC60E"/>
<circle cx="455.782" cy="708.872" r="2.09415" fill="#FCC60E"/>
<circle cx="455.782" cy="716.651" r="2.09415" fill="#FCC60E"/>
<circle cx="455.782" cy="724.429" r="2.09415" fill="#FCC60E"/>
<circle cx="455.782" cy="732.207" r="2.09415" fill="#FCC60E"/>
<circle cx="455.782" cy="739.986" r="2.09415" fill="#FCC60E"/>
<circle cx="455.782" cy="747.764" r="2.09415" fill="#FCC60E"/>
<circle cx="455.782" cy="755.542" r="2.09415" fill="#FCC60E"/>
<circle cx="455.782" cy="763.32" r="2.09415" fill="#FCC60E"/>
<circle cx="455.782" cy="771.099" r="2.09415" fill="#FCC60E"/>
<circle cx="455.782" cy="778.877" r="2.09415" fill="#FCC60E"/>
<circle cx="455.782" cy="786.655" r="2.09415" fill="#FCC60E"/>
<circle cx="455.782" cy="794.433" r="2.09415" fill="#FCC60E"/>
<circle cx="455.782" cy="802.212" r="2.09415" fill="#FCC60E"/>
<circle cx="455.782" cy="809.99" r="2.09415" fill="#FCC60E"/>
<circle cx="455.782" cy="817.768" r="2.09415" fill="#FCC60E"/>
<circle cx="455.782" cy="825.547" r="2.09415" fill="#FCC60E"/>
<circle cx="455.782" cy="833.325" r="2.09415" fill="#FCC60E"/>
<circle cx="455.782" cy="841.103" r="2.09415" fill="#FCC60E"/>
<circle cx="529.375" cy="701.094" r="2.09415" fill="#FCC60E"/>
<circle cx="529.375" cy="708.872" r="2.09415" fill="#FCC60E"/>
<circle cx="529.375" cy="716.651" r="2.09415" fill="#FCC60E"/>
<circle cx="529.375" cy="724.429" r="2.09415" fill="#FCC60E"/>
<circle cx="529.375" cy="732.207" r="2.09415" fill="#FCC60E"/>
<circle cx="529.375" cy="739.986" r="2.09415" fill="#FCC60E"/>
<circle cx="529.375" cy="747.764" r="2.09415" fill="#FCC60E"/>
<circle cx="529.375" cy="755.542" r="2.09415" fill="#FCC60E"/>
<circle cx="529.375" cy="763.32" r="2.09415" fill="#FCC60E"/>
<circle cx="529.375" cy="771.099" r="2.09415" fill="#FCC60E"/>
<circle cx="529.375" cy="778.877" r="2.09415" fill="#FCC60E"/>
<circle cx="529.375" cy="786.655" r="2.09415" fill="#FCC60E"/>
<circle cx="529.375" cy="794.433" r="2.09415" fill="#FCC60E"/>
<circle cx="529.375" cy="802.212" r="2.09415" fill="#FCC60E"/>
<circle cx="529.375" cy="809.99" r="2.09415" fill="#FCC60E"/>
<circle cx="529.375" cy="817.768" r="2.09415" fill="#FCC60E"/>
<circle cx="529.375" cy="825.547" r="2.09415" fill="#FCC60E"/>
<circle cx="529.375" cy="833.325" r="2.09415" fill="#FCC60E"/>
<circle cx="529.375" cy="841.103" r="2.09415" fill="#FCC60E"/>
<circle cx="464.157" cy="701.094" r="2.09415" fill="#FCC60E"/>
<circle cx="464.157" cy="708.872" r="2.09415" fill="#FCC60E"/>
<circle cx="464.157" cy="716.651" r="2.09415" fill="#FCC60E"/>
<circle cx="464.157" cy="724.429" r="2.09415" fill="#FCC60E"/>
<circle cx="464.157" cy="732.207" r="2.09415" fill="#FCC60E"/>
<circle cx="464.157" cy="739.986" r="2.09415" fill="#FCC60E"/>
<circle cx="464.157" cy="747.764" r="2.09415" fill="#FCC60E"/>
<circle cx="464.157" cy="755.542" r="2.09415" fill="#FCC60E"/>
<circle cx="464.157" cy="763.32" r="2.09415" fill="#FCC60E"/>
<circle cx="464.157" cy="771.099" r="2.09415" fill="#FCC60E"/>
<circle cx="464.157" cy="778.877" r="2.09415" fill="#FCC60E"/>
<circle cx="464.157" cy="786.655" r="2.09415" fill="#FCC60E"/>
<circle cx="464.157" cy="794.433" r="2.09415" fill="#FCC60E"/>
<circle cx="464.157" cy="802.212" r="2.09415" fill="#FCC60E"/>
<circle cx="464.157" cy="809.99" r="2.09415" fill="#FCC60E"/>
<circle cx="464.157" cy="817.768" r="2.09415" fill="#FCC60E"/>
<circle cx="464.157" cy="825.547" r="2.09415" fill="#FCC60E"/>
<circle cx="464.157" cy="833.325" r="2.09415" fill="#FCC60E"/>
<circle cx="464.157" cy="841.103" r="2.09415" fill="#FCC60E"/>
<circle cx="537.75" cy="701.094" r="2.09415" fill="#FCC60E"/>
<circle cx="537.75" cy="708.872" r="2.09415" fill="#FCC60E"/>
<circle cx="537.75" cy="716.651" r="2.09415" fill="#FCC60E"/>
<circle cx="537.75" cy="724.429" r="2.09415" fill="#FCC60E"/>
<circle cx="537.75" cy="732.207" r="2.09415" fill="#FCC60E"/>
<circle cx="537.75" cy="739.986" r="2.09415" fill="#FCC60E"/>
<circle cx="537.75" cy="747.764" r="2.09415" fill="#FCC60E"/>
<circle cx="537.75" cy="755.542" r="2.09415" fill="#FCC60E"/>
<circle cx="537.75" cy="763.32" r="2.09415" fill="#FCC60E"/>
<circle cx="537.75" cy="771.099" r="2.09415" fill="#FCC60E"/>
<circle cx="537.75" cy="778.877" r="2.09415" fill="#FCC60E"/>
<circle cx="537.75" cy="786.655" r="2.09415" fill="#FCC60E"/>
<circle cx="537.75" cy="794.433" r="2.09415" fill="#FCC60E"/>
<circle cx="537.75" cy="802.212" r="2.09415" fill="#FCC60E"/>
<circle cx="537.75" cy="809.99" r="2.09415" fill="#FCC60E"/>
<circle cx="537.75" cy="817.768" r="2.09415" fill="#FCC60E"/>
<circle cx="537.75" cy="825.547" r="2.09415" fill="#FCC60E"/>
<circle cx="537.75" cy="833.325" r="2.09415" fill="#FCC60E"/>
<circle cx="537.75" cy="841.103" r="2.09415" fill="#FCC60E"/>
<ellipse cx="472.234" cy="701.094" rx="1.79499" ry="2.09415" fill="#FCC60E"/>
<ellipse cx="472.234" cy="708.872" rx="1.79499" ry="2.09415" fill="#FCC60E"/>
<ellipse cx="472.234" cy="716.651" rx="1.79499" ry="2.09415" fill="#FCC60E"/>
<ellipse cx="472.234" cy="724.429" rx="1.79499" ry="2.09415" fill="#FCC60E"/>
<ellipse cx="472.234" cy="732.207" rx="1.79499" ry="2.09415" fill="#FCC60E"/>
<ellipse cx="472.234" cy="739.986" rx="1.79499" ry="2.09415" fill="#FCC60E"/>
<ellipse cx="472.234" cy="747.764" rx="1.79499" ry="2.09415" fill="#FCC60E"/>
<ellipse cx="472.234" cy="755.542" rx="1.79499" ry="2.09415" fill="#FCC60E"/>
<ellipse cx="472.234" cy="763.32" rx="1.79499" ry="2.09415" fill="#FCC60E"/>
<ellipse cx="472.234" cy="771.099" rx="1.79499" ry="2.09415" fill="#FCC60E"/>
<ellipse cx="472.234" cy="778.877" rx="1.79499" ry="2.09415" fill="#FCC60E"/>
<ellipse cx="472.234" cy="786.655" rx="1.79499" ry="2.09415" fill="#FCC60E"/>
<ellipse cx="472.234" cy="794.433" rx="1.79499" ry="2.09415" fill="#FCC60E"/>
<ellipse cx="472.234" cy="802.212" rx="1.79499" ry="2.09415" fill="#FCC60E"/>
<ellipse cx="472.234" cy="809.99" rx="1.79499" ry="2.09415" fill="#FCC60E"/>
<ellipse cx="472.234" cy="817.768" rx="1.79499" ry="2.09415" fill="#FCC60E"/>
<ellipse cx="472.234" cy="825.547" rx="1.79499" ry="2.09415" fill="#FCC60E"/>
<ellipse cx="472.234" cy="833.325" rx="1.79499" ry="2.09415" fill="#FCC60E"/>
<ellipse cx="472.234" cy="841.103" rx="1.79499" ry="2.09415" fill="#FCC60E"/>
<ellipse cx="545.83" cy="701.094" rx="1.79499" ry="2.09415" fill="#FCC60E"/>
<ellipse cx="545.83" cy="708.872" rx="1.79499" ry="2.09415" fill="#FCC60E"/>
<ellipse cx="545.83" cy="716.651" rx="1.79499" ry="2.09415" fill="#FCC60E"/>
<ellipse cx="545.83" cy="724.429" rx="1.79499" ry="2.09415" fill="#FCC60E"/>
<ellipse cx="545.83" cy="732.207" rx="1.79499" ry="2.09415" fill="#FCC60E"/>
<ellipse cx="545.83" cy="739.986" rx="1.79499" ry="2.09415" fill="#FCC60E"/>
<ellipse cx="545.83" cy="747.764" rx="1.79499" ry="2.09415" fill="#FCC60E"/>
<ellipse cx="545.83" cy="755.542" rx="1.79499" ry="2.09415" fill="#FCC60E"/>
<ellipse cx="545.83" cy="763.32" rx="1.79499" ry="2.09415" fill="#FCC60E"/>
<ellipse cx="545.83" cy="771.099" rx="1.79499" ry="2.09415" fill="#FCC60E"/>
<ellipse cx="545.83" cy="778.877" rx="1.79499" ry="2.09415" fill="#FCC60E"/>
<ellipse cx="545.83" cy="786.655" rx="1.79499" ry="2.09415" fill="#FCC60E"/>
<ellipse cx="545.83" cy="794.433" rx="1.79499" ry="2.09415" fill="#FCC60E"/>
<ellipse cx="545.83" cy="802.212" rx="1.79499" ry="2.09415" fill="#FCC60E"/>
<ellipse cx="545.83" cy="809.99" rx="1.79499" ry="2.09415" fill="#FCC60E"/>
<ellipse cx="545.83" cy="817.768" rx="1.79499" ry="2.09415" fill="#FCC60E"/>
<ellipse cx="545.83" cy="825.547" rx="1.79499" ry="2.09415" fill="#FCC60E"/>
<ellipse cx="545.83" cy="833.325" rx="1.79499" ry="2.09415" fill="#FCC60E"/>
<ellipse cx="545.83" cy="841.103" rx="1.79499" ry="2.09415" fill="#FCC60E"/>
<circle cx="480.311" cy="701.094" r="2.09415" fill="#FCC60E"/>
<circle cx="480.311" cy="708.872" r="2.09415" fill="#FCC60E"/>
<circle cx="480.311" cy="716.651" r="2.09415" fill="#FCC60E"/>
<circle cx="480.311" cy="724.429" r="2.09415" fill="#FCC60E"/>
<circle cx="480.311" cy="732.207" r="2.09415" fill="#FCC60E"/>
<circle cx="480.311" cy="739.986" r="2.09415" fill="#FCC60E"/>
<circle cx="480.311" cy="747.764" r="2.09415" fill="#FCC60E"/>
<circle cx="480.311" cy="755.542" r="2.09415" fill="#FCC60E"/>
<circle cx="480.311" cy="763.32" r="2.09415" fill="#FCC60E"/>
<circle cx="480.311" cy="771.099" r="2.09415" fill="#FCC60E"/>
<circle cx="480.311" cy="778.877" r="2.09415" fill="#FCC60E"/>
<circle cx="480.311" cy="786.655" r="2.09415" fill="#FCC60E"/>
<circle cx="480.311" cy="794.433" r="2.09415" fill="#FCC60E"/>
<circle cx="480.311" cy="802.212" r="2.09415" fill="#FCC60E"/>
<circle cx="480.311" cy="809.99" r="2.09415" fill="#FCC60E"/>
<circle cx="480.311" cy="817.768" r="2.09415" fill="#FCC60E"/>
<circle cx="480.311" cy="825.547" r="2.09415" fill="#FCC60E"/>
<circle cx="480.311" cy="833.325" r="2.09415" fill="#FCC60E"/>
<circle cx="480.311" cy="841.103" r="2.09415" fill="#FCC60E"/>
<circle cx="553.905" cy="701.094" r="2.09415" fill="#FCC60E"/>
<circle cx="553.905" cy="708.872" r="2.09415" fill="#FCC60E"/>
<circle cx="553.905" cy="716.651" r="2.09415" fill="#FCC60E"/>
<circle cx="553.905" cy="724.429" r="2.09415" fill="#FCC60E"/>
<circle cx="553.905" cy="732.207" r="2.09415" fill="#FCC60E"/>
<circle cx="553.905" cy="739.986" r="2.09415" fill="#FCC60E"/>
<circle cx="553.905" cy="747.764" r="2.09415" fill="#FCC60E"/>
<circle cx="553.905" cy="755.542" r="2.09415" fill="#FCC60E"/>
<circle cx="553.905" cy="763.32" r="2.09415" fill="#FCC60E"/>
<circle cx="553.905" cy="771.099" r="2.09415" fill="#FCC60E"/>
<circle cx="553.905" cy="778.877" r="2.09415" fill="#FCC60E"/>
<circle cx="553.905" cy="786.655" r="2.09415" fill="#FCC60E"/>
<circle cx="553.905" cy="794.433" r="2.09415" fill="#FCC60E"/>
<circle cx="553.905" cy="802.212" r="2.09415" fill="#FCC60E"/>
<circle cx="553.905" cy="809.99" r="2.09415" fill="#FCC60E"/>
<circle cx="553.905" cy="817.768" r="2.09415" fill="#FCC60E"/>
<circle cx="553.905" cy="825.547" r="2.09415" fill="#FCC60E"/>
<circle cx="553.905" cy="833.325" r="2.09415" fill="#FCC60E"/>
<circle cx="553.905" cy="841.103" r="2.09415" fill="#FCC60E"/>
</g>
</svg>
