<svg width="30" height="30" viewBox="0 0 30 30" fill="none" xmlns="http://www.w3.org/2000/svg">
<path d="M29.0625 29.9993C28.8125 29.9993 28.5763 29.9018 28.4 29.7243L15 16.3255L1.6 29.7243C1.4225 29.9018 1.1875 29.9993 0.9375 29.9993C0.6875 29.9993 0.45125 29.9018 0.275 29.7243C-0.09 29.3593 -0.09 28.7643 0.275 28.398L13.675 14.998L0.275 1.5993C0.0975 1.42305 0 1.1868 0 0.936797C0 0.686797 0.0975 0.450547 0.275 0.274297C0.45125 0.0967969 0.6875 -0.000703125 0.9375 -0.000703125C1.1875 -0.000703125 1.42375 0.0967969 1.6 0.274297L15 13.673L28.4 0.273047C28.5775 0.0955469 28.8125 -0.00195312 29.0625 -0.00195312C29.3125 -0.00195312 29.5487 0.0955469 29.725 0.273047C29.9025 0.450547 30 0.686797 30 0.936797C30 1.1868 29.9025 1.42305 29.725 1.5993L16.325 14.9993L29.725 28.3993C30.09 28.7643 30.09 29.3593 29.725 29.7255C29.5487 29.9018 29.3125 29.9993 29.0625 29.9993Z" fill="white"/>
</svg>
