<svg width="69" height="318" viewBox="0 0 69 318" fill="none" xmlns="http://www.w3.org/2000/svg">
<g opacity="0.2">
<ellipse cx="10.1325" cy="4.61826" rx="4.60904" ry="4.61826" fill="#FCC60E"/>
<ellipse cx="10.1305" cy="21.7718" rx="4.60904" ry="4.61826" fill="#FCC60E"/>
<ellipse cx="10.1305" cy="38.9254" rx="4.60904" ry="4.61826" fill="#FCC60E"/>
<ellipse cx="10.1305" cy="56.0787" rx="4.60904" ry="4.61826" fill="#FCC60E"/>
<ellipse cx="10.1305" cy="73.232" rx="4.60904" ry="4.61826" fill="#FCC60E"/>
<ellipse cx="10.1305" cy="90.3858" rx="4.60904" ry="4.61826" fill="#FCC60E"/>
<ellipse cx="10.1305" cy="107.539" rx="4.60904" ry="4.61826" fill="#FCC60E"/>
<ellipse cx="10.1305" cy="124.693" rx="4.60904" ry="4.61826" fill="#FCC60E"/>
<ellipse cx="10.1305" cy="141.847" rx="4.60904" ry="4.61826" fill="#FCC60E"/>
<ellipse cx="10.1305" cy="159" rx="4.60904" ry="4.61826" fill="#FCC60E"/>
<ellipse cx="10.1305" cy="176.153" rx="4.60904" ry="4.61826" fill="#FCC60E"/>
<ellipse cx="10.1305" cy="193.307" rx="4.60904" ry="4.61826" fill="#FCC60E"/>
<ellipse cx="10.1305" cy="210.461" rx="4.60904" ry="4.61826" fill="#FCC60E"/>
<ellipse cx="10.1305" cy="227.614" rx="4.60904" ry="4.61826" fill="#FCC60E"/>
<ellipse cx="10.1305" cy="244.768" rx="4.60904" ry="4.61826" fill="#FCC60E"/>
<ellipse cx="10.1305" cy="261.921" rx="4.60904" ry="4.61826" fill="#FCC60E"/>
<ellipse cx="10.1305" cy="279.075" rx="4.60904" ry="4.61826" fill="#FCC60E"/>
<ellipse cx="10.1305" cy="296.228" rx="4.60904" ry="4.61826" fill="#FCC60E"/>
<ellipse cx="10.1305" cy="313.382" rx="4.60904" ry="4.61826" fill="#FCC60E"/>
<ellipse cx="28.5661" cy="4.61826" rx="4.60904" ry="4.61826" fill="#FCC60E"/>
<ellipse cx="28.5661" cy="21.7718" rx="4.60904" ry="4.61826" fill="#FCC60E"/>
<ellipse cx="28.5661" cy="38.9254" rx="4.60904" ry="4.61826" fill="#FCC60E"/>
<ellipse cx="28.5661" cy="56.0787" rx="4.60904" ry="4.61826" fill="#FCC60E"/>
<ellipse cx="28.5661" cy="73.232" rx="4.60904" ry="4.61826" fill="#FCC60E"/>
<ellipse cx="28.5661" cy="90.3858" rx="4.60904" ry="4.61826" fill="#FCC60E"/>
<ellipse cx="28.5661" cy="107.539" rx="4.60904" ry="4.61826" fill="#FCC60E"/>
<ellipse cx="28.5661" cy="124.693" rx="4.60904" ry="4.61826" fill="#FCC60E"/>
<ellipse cx="28.5661" cy="141.847" rx="4.60904" ry="4.61826" fill="#FCC60E"/>
<ellipse cx="28.5661" cy="159" rx="4.60904" ry="4.61826" fill="#FCC60E"/>
<ellipse cx="28.5661" cy="176.153" rx="4.60904" ry="4.61826" fill="#FCC60E"/>
<ellipse cx="28.5661" cy="193.307" rx="4.60904" ry="4.61826" fill="#FCC60E"/>
<ellipse cx="28.5661" cy="210.461" rx="4.60904" ry="4.61826" fill="#FCC60E"/>
<ellipse cx="28.5661" cy="227.614" rx="4.60904" ry="4.61826" fill="#FCC60E"/>
<ellipse cx="28.5661" cy="244.768" rx="4.60904" ry="4.61826" fill="#FCC60E"/>
<ellipse cx="28.5661" cy="261.921" rx="4.60904" ry="4.61826" fill="#FCC60E"/>
<ellipse cx="28.5661" cy="279.075" rx="4.60904" ry="4.61826" fill="#FCC60E"/>
<ellipse cx="28.5661" cy="296.228" rx="4.60904" ry="4.61826" fill="#FCC60E"/>
<ellipse cx="28.5661" cy="313.382" rx="4.60904" ry="4.61826" fill="#FCC60E"/>
<ellipse cx="46.349" cy="4.61826" rx="3.95061" ry="4.61826" fill="#FCC60E"/>
<ellipse cx="46.349" cy="21.7718" rx="3.95061" ry="4.61826" fill="#FCC60E"/>
<ellipse cx="46.349" cy="38.9254" rx="3.95061" ry="4.61826" fill="#FCC60E"/>
<ellipse cx="46.349" cy="56.0787" rx="3.95061" ry="4.61826" fill="#FCC60E"/>
<ellipse cx="46.349" cy="73.232" rx="3.95061" ry="4.61826" fill="#FCC60E"/>
<ellipse cx="46.349" cy="90.3858" rx="3.95061" ry="4.61826" fill="#FCC60E"/>
<ellipse cx="46.349" cy="107.539" rx="3.95061" ry="4.61826" fill="#FCC60E"/>
<ellipse cx="46.349" cy="124.693" rx="3.95061" ry="4.61826" fill="#FCC60E"/>
<ellipse cx="46.349" cy="141.847" rx="3.95061" ry="4.61826" fill="#FCC60E"/>
<ellipse cx="46.349" cy="159" rx="3.95061" ry="4.61826" fill="#FCC60E"/>
<ellipse cx="46.349" cy="176.153" rx="3.95061" ry="4.61826" fill="#FCC60E"/>
<ellipse cx="46.349" cy="193.307" rx="3.95061" ry="4.61826" fill="#FCC60E"/>
<ellipse cx="46.349" cy="210.461" rx="3.95061" ry="4.61826" fill="#FCC60E"/>
<ellipse cx="46.349" cy="227.614" rx="3.95061" ry="4.61826" fill="#FCC60E"/>
<ellipse cx="46.349" cy="244.768" rx="3.95061" ry="4.61826" fill="#FCC60E"/>
<ellipse cx="46.349" cy="261.921" rx="3.95061" ry="4.61826" fill="#FCC60E"/>
<ellipse cx="46.349" cy="279.075" rx="3.95061" ry="4.61826" fill="#FCC60E"/>
<ellipse cx="46.349" cy="296.228" rx="3.95061" ry="4.61826" fill="#FCC60E"/>
<ellipse cx="46.349" cy="313.382" rx="3.95061" ry="4.61826" fill="#FCC60E"/>
<ellipse cx="64.1208" cy="4.61826" rx="4.60904" ry="4.61826" fill="#FCC60E"/>
<ellipse cx="64.1208" cy="21.7718" rx="4.60904" ry="4.61826" fill="#FCC60E"/>
<ellipse cx="64.1208" cy="38.9254" rx="4.60904" ry="4.61826" fill="#FCC60E"/>
<ellipse cx="64.1208" cy="56.0787" rx="4.60904" ry="4.61826" fill="#FCC60E"/>
<ellipse cx="64.1208" cy="73.232" rx="4.60904" ry="4.61826" fill="#FCC60E"/>
<ellipse cx="64.1208" cy="90.3858" rx="4.60904" ry="4.61826" fill="#FCC60E"/>
<ellipse cx="64.1208" cy="107.539" rx="4.60904" ry="4.61826" fill="#FCC60E"/>
<ellipse cx="64.1208" cy="124.693" rx="4.60904" ry="4.61826" fill="#FCC60E"/>
<ellipse cx="64.1208" cy="141.847" rx="4.60904" ry="4.61826" fill="#FCC60E"/>
<ellipse cx="64.1208" cy="159" rx="4.60904" ry="4.61826" fill="#FCC60E"/>
<ellipse cx="64.1208" cy="176.153" rx="4.60904" ry="4.61826" fill="#FCC60E"/>
<ellipse cx="64.1208" cy="193.307" rx="4.60904" ry="4.61826" fill="#FCC60E"/>
<ellipse cx="64.1208" cy="210.461" rx="4.60904" ry="4.61826" fill="#FCC60E"/>
<ellipse cx="64.1208" cy="227.614" rx="4.60904" ry="4.61826" fill="#FCC60E"/>
<ellipse cx="64.1208" cy="244.768" rx="4.60904" ry="4.61826" fill="#FCC60E"/>
<ellipse cx="64.1208" cy="261.921" rx="4.60904" ry="4.61826" fill="#FCC60E"/>
<ellipse cx="64.1208" cy="279.075" rx="4.60904" ry="4.61826" fill="#FCC60E"/>
<ellipse cx="64.1208" cy="296.228" rx="4.60904" ry="4.61826" fill="#FCC60E"/>
<ellipse cx="64.1208" cy="313.382" rx="4.60904" ry="4.61826" fill="#FCC60E"/>
</g>
</svg>
