<svg width="190" height="337" viewBox="0 0 190 337" fill="none" xmlns="http://www.w3.org/2000/svg">
<g opacity="0.3">
<ellipse cx="4.18831" cy="4.88714" rx="4.18831" ry="4.88714" fill="#D7E5FA"/>
<ellipse cx="4.18831" cy="23.0395" rx="4.18831" ry="4.88714" fill="#D7E5FA"/>
<ellipse cx="4.18831" cy="41.1916" rx="4.18831" ry="4.88714" fill="#D7E5FA"/>
<ellipse cx="4.18831" cy="59.3439" rx="4.18831" ry="4.88714" fill="#D7E5FA"/>
<ellipse cx="4.18831" cy="77.496" rx="4.18831" ry="4.88714" fill="#D7E5FA"/>
<ellipse cx="4.18831" cy="95.6484" rx="4.18831" ry="4.88714" fill="#D7E5FA"/>
<ellipse cx="4.18831" cy="113.8" rx="4.18831" ry="4.88714" fill="#D7E5FA"/>
<ellipse cx="4.18831" cy="131.953" rx="4.18831" ry="4.88714" fill="#D7E5FA"/>
<ellipse cx="4.18831" cy="150.105" rx="4.18831" ry="4.88714" fill="#D7E5FA"/>
<ellipse cx="4.18831" cy="168.257" rx="4.18831" ry="4.88714" fill="#D7E5FA"/>
<ellipse cx="4.18831" cy="186.409" rx="4.18831" ry="4.88714" fill="#D7E5FA"/>
<ellipse cx="4.18831" cy="204.561" rx="4.18831" ry="4.88714" fill="#D7E5FA"/>
<ellipse cx="4.18831" cy="222.714" rx="4.18831" ry="4.88714" fill="#D7E5FA"/>
<ellipse cx="4.18831" cy="240.866" rx="4.18831" ry="4.88714" fill="#D7E5FA"/>
<ellipse cx="4.18831" cy="259.018" rx="4.18831" ry="4.88714" fill="#D7E5FA"/>
<ellipse cx="4.18831" cy="277.17" rx="4.18831" ry="4.88714" fill="#D7E5FA"/>
<ellipse cx="4.18831" cy="295.323" rx="4.18831" ry="4.88714" fill="#D7E5FA"/>
<ellipse cx="4.18831" cy="313.475" rx="4.18831" ry="4.88714" fill="#D7E5FA"/>
<ellipse cx="4.18831" cy="331.627" rx="4.18831" ry="4.88714" fill="#D7E5FA"/>
<ellipse cx="151.38" cy="4.88714" rx="4.18831" ry="4.88714" fill="#D7E5FA"/>
<ellipse cx="151.38" cy="23.0395" rx="4.18831" ry="4.88714" fill="#D7E5FA"/>
<ellipse cx="151.38" cy="41.1916" rx="4.18831" ry="4.88714" fill="#D7E5FA"/>
<ellipse cx="151.38" cy="59.3439" rx="4.18831" ry="4.88714" fill="#D7E5FA"/>
<ellipse cx="151.38" cy="77.496" rx="4.18831" ry="4.88714" fill="#D7E5FA"/>
<ellipse cx="151.38" cy="95.6484" rx="4.18831" ry="4.88714" fill="#D7E5FA"/>
<ellipse cx="151.38" cy="113.8" rx="4.18831" ry="4.88714" fill="#D7E5FA"/>
<ellipse cx="151.38" cy="131.953" rx="4.18831" ry="4.88714" fill="#D7E5FA"/>
<ellipse cx="151.38" cy="150.105" rx="4.18831" ry="4.88714" fill="#D7E5FA"/>
<ellipse cx="151.38" cy="168.257" rx="4.18831" ry="4.88714" fill="#D7E5FA"/>
<ellipse cx="151.38" cy="186.409" rx="4.18831" ry="4.88714" fill="#D7E5FA"/>
<ellipse cx="151.38" cy="204.561" rx="4.18831" ry="4.88714" fill="#D7E5FA"/>
<ellipse cx="151.38" cy="222.714" rx="4.18831" ry="4.88714" fill="#D7E5FA"/>
<ellipse cx="151.38" cy="240.866" rx="4.18831" ry="4.88714" fill="#D7E5FA"/>
<ellipse cx="151.38" cy="259.018" rx="4.18831" ry="4.88714" fill="#D7E5FA"/>
<ellipse cx="151.38" cy="277.17" rx="4.18831" ry="4.88714" fill="#D7E5FA"/>
<ellipse cx="151.38" cy="295.323" rx="4.18831" ry="4.88714" fill="#D7E5FA"/>
<ellipse cx="151.38" cy="313.475" rx="4.18831" ry="4.88714" fill="#D7E5FA"/>
<ellipse cx="151.38" cy="331.627" rx="4.18831" ry="4.88714" fill="#D7E5FA"/>
<ellipse cx="20.3429" cy="4.88714" rx="3.58998" ry="4.88714" fill="#D7E5FA"/>
<ellipse cx="20.3429" cy="23.0395" rx="3.58998" ry="4.88714" fill="#D7E5FA"/>
<ellipse cx="20.3429" cy="41.1916" rx="3.58998" ry="4.88714" fill="#D7E5FA"/>
<ellipse cx="20.3429" cy="59.3439" rx="3.58998" ry="4.88714" fill="#D7E5FA"/>
<ellipse cx="20.3429" cy="77.496" rx="3.58998" ry="4.88714" fill="#D7E5FA"/>
<ellipse cx="20.3429" cy="95.6484" rx="3.58998" ry="4.88714" fill="#D7E5FA"/>
<ellipse cx="20.3429" cy="113.8" rx="3.58998" ry="4.88714" fill="#D7E5FA"/>
<ellipse cx="20.3429" cy="131.953" rx="3.58998" ry="4.88714" fill="#D7E5FA"/>
<ellipse cx="20.3429" cy="150.105" rx="3.58998" ry="4.88714" fill="#D7E5FA"/>
<ellipse cx="20.3429" cy="168.257" rx="3.58998" ry="4.88714" fill="#D7E5FA"/>
<ellipse cx="20.3429" cy="186.409" rx="3.58998" ry="4.88714" fill="#D7E5FA"/>
<ellipse cx="20.3429" cy="204.561" rx="3.58998" ry="4.88714" fill="#D7E5FA"/>
<ellipse cx="20.3429" cy="222.714" rx="3.58998" ry="4.88714" fill="#D7E5FA"/>
<ellipse cx="20.3429" cy="240.866" rx="3.58998" ry="4.88714" fill="#D7E5FA"/>
<ellipse cx="20.3429" cy="259.018" rx="3.58998" ry="4.88714" fill="#D7E5FA"/>
<ellipse cx="20.3429" cy="277.17" rx="3.58998" ry="4.88714" fill="#D7E5FA"/>
<ellipse cx="20.3429" cy="295.323" rx="3.58998" ry="4.88714" fill="#D7E5FA"/>
<ellipse cx="20.3429" cy="313.475" rx="3.58998" ry="4.88714" fill="#D7E5FA"/>
<ellipse cx="20.3429" cy="331.627" rx="3.58998" ry="4.88714" fill="#D7E5FA"/>
<ellipse cx="167.534" cy="4.88714" rx="3.58998" ry="4.88714" fill="#D7E5FA"/>
<ellipse cx="167.534" cy="23.0395" rx="3.58998" ry="4.88714" fill="#D7E5FA"/>
<ellipse cx="167.534" cy="41.1916" rx="3.58998" ry="4.88714" fill="#D7E5FA"/>
<ellipse cx="167.534" cy="59.3439" rx="3.58998" ry="4.88714" fill="#D7E5FA"/>
<ellipse cx="167.534" cy="77.496" rx="3.58998" ry="4.88714" fill="#D7E5FA"/>
<ellipse cx="167.534" cy="95.6484" rx="3.58998" ry="4.88714" fill="#D7E5FA"/>
<ellipse cx="167.534" cy="113.8" rx="3.58998" ry="4.88714" fill="#D7E5FA"/>
<ellipse cx="167.534" cy="131.953" rx="3.58998" ry="4.88714" fill="#D7E5FA"/>
<ellipse cx="167.534" cy="150.105" rx="3.58998" ry="4.88714" fill="#D7E5FA"/>
<ellipse cx="167.534" cy="168.257" rx="3.58998" ry="4.88714" fill="#D7E5FA"/>
<ellipse cx="167.534" cy="186.409" rx="3.58998" ry="4.88714" fill="#D7E5FA"/>
<ellipse cx="167.534" cy="204.561" rx="3.58998" ry="4.88714" fill="#D7E5FA"/>
<ellipse cx="167.534" cy="222.714" rx="3.58998" ry="4.88714" fill="#D7E5FA"/>
<ellipse cx="167.534" cy="240.866" rx="3.58998" ry="4.88714" fill="#D7E5FA"/>
<ellipse cx="167.534" cy="259.018" rx="3.58998" ry="4.88714" fill="#D7E5FA"/>
<ellipse cx="167.534" cy="277.17" rx="3.58998" ry="4.88714" fill="#D7E5FA"/>
<ellipse cx="167.534" cy="295.323" rx="3.58998" ry="4.88714" fill="#D7E5FA"/>
<ellipse cx="167.534" cy="313.475" rx="3.58998" ry="4.88714" fill="#D7E5FA"/>
<ellipse cx="167.534" cy="331.627" rx="3.58998" ry="4.88714" fill="#D7E5FA"/>
<ellipse cx="36.4969" cy="4.88714" rx="4.18831" ry="4.88714" fill="#D7E5FA"/>
<ellipse cx="36.4969" cy="23.0395" rx="4.18831" ry="4.88714" fill="#D7E5FA"/>
<ellipse cx="36.4969" cy="41.1916" rx="4.18831" ry="4.88714" fill="#D7E5FA"/>
<ellipse cx="36.4969" cy="59.3439" rx="4.18831" ry="4.88714" fill="#D7E5FA"/>
<ellipse cx="36.4969" cy="77.496" rx="4.18831" ry="4.88714" fill="#D7E5FA"/>
<ellipse cx="36.4969" cy="95.6484" rx="4.18831" ry="4.88714" fill="#D7E5FA"/>
<ellipse cx="36.4969" cy="113.8" rx="4.18831" ry="4.88714" fill="#D7E5FA"/>
<ellipse cx="36.4969" cy="131.953" rx="4.18831" ry="4.88714" fill="#D7E5FA"/>
<ellipse cx="36.4969" cy="150.105" rx="4.18831" ry="4.88714" fill="#D7E5FA"/>
<ellipse cx="36.4969" cy="168.257" rx="4.18831" ry="4.88714" fill="#D7E5FA"/>
<ellipse cx="36.4969" cy="186.409" rx="4.18831" ry="4.88714" fill="#D7E5FA"/>
<ellipse cx="36.4969" cy="204.561" rx="4.18831" ry="4.88714" fill="#D7E5FA"/>
<ellipse cx="36.4969" cy="222.714" rx="4.18831" ry="4.88714" fill="#D7E5FA"/>
<ellipse cx="36.4969" cy="240.866" rx="4.18831" ry="4.88714" fill="#D7E5FA"/>
<ellipse cx="36.4969" cy="259.018" rx="4.18831" ry="4.88714" fill="#D7E5FA"/>
<ellipse cx="36.4969" cy="277.17" rx="4.18831" ry="4.88714" fill="#D7E5FA"/>
<ellipse cx="36.4969" cy="295.323" rx="4.18831" ry="4.88714" fill="#D7E5FA"/>
<ellipse cx="36.4969" cy="313.475" rx="4.18831" ry="4.88714" fill="#D7E5FA"/>
<ellipse cx="36.4969" cy="331.627" rx="4.18831" ry="4.88714" fill="#D7E5FA"/>
<ellipse cx="183.686" cy="4.88714" rx="4.18831" ry="4.88714" fill="#D7E5FA"/>
<ellipse cx="183.686" cy="23.0395" rx="4.18831" ry="4.88714" fill="#D7E5FA"/>
<ellipse cx="183.686" cy="41.1916" rx="4.18831" ry="4.88714" fill="#D7E5FA"/>
<ellipse cx="183.686" cy="59.3439" rx="4.18831" ry="4.88714" fill="#D7E5FA"/>
<ellipse cx="183.686" cy="77.496" rx="4.18831" ry="4.88714" fill="#D7E5FA"/>
<ellipse cx="183.686" cy="95.6484" rx="4.18831" ry="4.88714" fill="#D7E5FA"/>
<ellipse cx="183.686" cy="113.8" rx="4.18831" ry="4.88714" fill="#D7E5FA"/>
<ellipse cx="183.686" cy="131.953" rx="4.18831" ry="4.88714" fill="#D7E5FA"/>
<ellipse cx="183.686" cy="150.105" rx="4.18831" ry="4.88714" fill="#D7E5FA"/>
<ellipse cx="183.686" cy="168.257" rx="4.18831" ry="4.88714" fill="#D7E5FA"/>
<ellipse cx="183.686" cy="186.409" rx="4.18831" ry="4.88714" fill="#D7E5FA"/>
<ellipse cx="183.686" cy="204.561" rx="4.18831" ry="4.88714" fill="#D7E5FA"/>
<ellipse cx="183.686" cy="222.714" rx="4.18831" ry="4.88714" fill="#D7E5FA"/>
<ellipse cx="183.686" cy="240.866" rx="4.18831" ry="4.88714" fill="#D7E5FA"/>
<ellipse cx="183.686" cy="259.018" rx="4.18831" ry="4.88714" fill="#D7E5FA"/>
<ellipse cx="183.686" cy="277.17" rx="4.18831" ry="4.88714" fill="#D7E5FA"/>
<ellipse cx="183.686" cy="295.323" rx="4.18831" ry="4.88714" fill="#D7E5FA"/>
<ellipse cx="183.686" cy="313.475" rx="4.18831" ry="4.88714" fill="#D7E5FA"/>
<ellipse cx="183.686" cy="331.627" rx="4.18831" ry="4.88714" fill="#D7E5FA"/>
<ellipse cx="53.2537" cy="4.88714" rx="4.18831" ry="4.88714" fill="#D7E5FA"/>
<ellipse cx="53.2537" cy="23.0395" rx="4.18831" ry="4.88714" fill="#D7E5FA"/>
<ellipse cx="53.2537" cy="41.1916" rx="4.18831" ry="4.88714" fill="#D7E5FA"/>
<ellipse cx="53.2537" cy="59.3439" rx="4.18831" ry="4.88714" fill="#D7E5FA"/>
<ellipse cx="53.2537" cy="77.496" rx="4.18831" ry="4.88714" fill="#D7E5FA"/>
<ellipse cx="53.2537" cy="95.6484" rx="4.18831" ry="4.88714" fill="#D7E5FA"/>
<ellipse cx="53.2537" cy="113.8" rx="4.18831" ry="4.88714" fill="#D7E5FA"/>
<ellipse cx="53.2537" cy="131.953" rx="4.18831" ry="4.88714" fill="#D7E5FA"/>
<ellipse cx="53.2537" cy="150.105" rx="4.18831" ry="4.88714" fill="#D7E5FA"/>
<ellipse cx="53.2537" cy="168.257" rx="4.18831" ry="4.88714" fill="#D7E5FA"/>
<ellipse cx="53.2537" cy="186.409" rx="4.18831" ry="4.88714" fill="#D7E5FA"/>
<ellipse cx="53.2537" cy="204.561" rx="4.18831" ry="4.88714" fill="#D7E5FA"/>
<ellipse cx="53.2537" cy="222.714" rx="4.18831" ry="4.88714" fill="#D7E5FA"/>
<ellipse cx="53.2537" cy="240.866" rx="4.18831" ry="4.88714" fill="#D7E5FA"/>
<ellipse cx="53.2537" cy="259.018" rx="4.18831" ry="4.88714" fill="#D7E5FA"/>
<ellipse cx="53.2537" cy="277.17" rx="4.18831" ry="4.88714" fill="#D7E5FA"/>
<ellipse cx="53.2537" cy="295.323" rx="4.18831" ry="4.88714" fill="#D7E5FA"/>
<ellipse cx="53.2537" cy="313.475" rx="4.18831" ry="4.88714" fill="#D7E5FA"/>
<ellipse cx="53.2537" cy="331.627" rx="4.18831" ry="4.88714" fill="#D7E5FA"/>
<ellipse cx="69.4083" cy="4.88714" rx="3.58998" ry="4.88714" fill="#D7E5FA"/>
<ellipse cx="69.4083" cy="23.0395" rx="3.58998" ry="4.88714" fill="#D7E5FA"/>
<ellipse cx="69.4083" cy="41.1916" rx="3.58998" ry="4.88714" fill="#D7E5FA"/>
<ellipse cx="69.4083" cy="59.3439" rx="3.58998" ry="4.88714" fill="#D7E5FA"/>
<ellipse cx="69.4083" cy="77.496" rx="3.58998" ry="4.88714" fill="#D7E5FA"/>
<ellipse cx="69.4083" cy="95.6484" rx="3.58998" ry="4.88714" fill="#D7E5FA"/>
<ellipse cx="69.4083" cy="113.8" rx="3.58998" ry="4.88714" fill="#D7E5FA"/>
<ellipse cx="69.4083" cy="131.953" rx="3.58998" ry="4.88714" fill="#D7E5FA"/>
<ellipse cx="69.4083" cy="150.105" rx="3.58998" ry="4.88714" fill="#D7E5FA"/>
<ellipse cx="69.4083" cy="168.257" rx="3.58998" ry="4.88714" fill="#D7E5FA"/>
<ellipse cx="69.4083" cy="186.409" rx="3.58998" ry="4.88714" fill="#D7E5FA"/>
<ellipse cx="69.4083" cy="204.561" rx="3.58998" ry="4.88714" fill="#D7E5FA"/>
<ellipse cx="69.4083" cy="222.714" rx="3.58998" ry="4.88714" fill="#D7E5FA"/>
<ellipse cx="69.4083" cy="240.866" rx="3.58998" ry="4.88714" fill="#D7E5FA"/>
<ellipse cx="69.4083" cy="259.018" rx="3.58998" ry="4.88714" fill="#D7E5FA"/>
<ellipse cx="69.4083" cy="277.17" rx="3.58998" ry="4.88714" fill="#D7E5FA"/>
<ellipse cx="69.4083" cy="295.323" rx="3.58998" ry="4.88714" fill="#D7E5FA"/>
<ellipse cx="69.4083" cy="313.475" rx="3.58998" ry="4.88714" fill="#D7E5FA"/>
<ellipse cx="69.4083" cy="331.627" rx="3.58998" ry="4.88714" fill="#D7E5FA"/>
<ellipse cx="85.5633" cy="4.88714" rx="4.18831" ry="4.88714" fill="#D7E5FA"/>
<ellipse cx="85.5633" cy="23.0395" rx="4.18831" ry="4.88714" fill="#D7E5FA"/>
<ellipse cx="85.5633" cy="41.1916" rx="4.18831" ry="4.88714" fill="#D7E5FA"/>
<ellipse cx="85.5633" cy="59.3439" rx="4.18831" ry="4.88714" fill="#D7E5FA"/>
<ellipse cx="85.5633" cy="77.496" rx="4.18831" ry="4.88714" fill="#D7E5FA"/>
<ellipse cx="85.5633" cy="95.6484" rx="4.18831" ry="4.88714" fill="#D7E5FA"/>
<ellipse cx="85.5633" cy="113.8" rx="4.18831" ry="4.88714" fill="#D7E5FA"/>
<ellipse cx="85.5633" cy="131.953" rx="4.18831" ry="4.88714" fill="#D7E5FA"/>
<ellipse cx="85.5633" cy="150.105" rx="4.18831" ry="4.88714" fill="#D7E5FA"/>
<ellipse cx="85.5633" cy="168.257" rx="4.18831" ry="4.88714" fill="#D7E5FA"/>
<ellipse cx="85.5633" cy="186.409" rx="4.18831" ry="4.88714" fill="#D7E5FA"/>
<ellipse cx="85.5633" cy="204.561" rx="4.18831" ry="4.88714" fill="#D7E5FA"/>
<ellipse cx="85.5633" cy="222.714" rx="4.18831" ry="4.88714" fill="#D7E5FA"/>
<ellipse cx="85.5633" cy="240.866" rx="4.18831" ry="4.88714" fill="#D7E5FA"/>
<ellipse cx="85.5633" cy="259.018" rx="4.18831" ry="4.88714" fill="#D7E5FA"/>
<ellipse cx="85.5633" cy="277.17" rx="4.18831" ry="4.88714" fill="#D7E5FA"/>
<ellipse cx="85.5633" cy="295.323" rx="4.18831" ry="4.88714" fill="#D7E5FA"/>
<ellipse cx="85.5633" cy="313.475" rx="4.18831" ry="4.88714" fill="#D7E5FA"/>
<ellipse cx="85.5633" cy="331.627" rx="4.18831" ry="4.88714" fill="#D7E5FA"/>
<ellipse cx="102.316" cy="4.88714" rx="4.18831" ry="4.88714" fill="#D7E5FA"/>
<ellipse cx="102.316" cy="23.0395" rx="4.18831" ry="4.88714" fill="#D7E5FA"/>
<ellipse cx="102.316" cy="41.1916" rx="4.18831" ry="4.88714" fill="#D7E5FA"/>
<ellipse cx="102.316" cy="59.3439" rx="4.18831" ry="4.88714" fill="#D7E5FA"/>
<ellipse cx="102.316" cy="77.496" rx="4.18831" ry="4.88714" fill="#D7E5FA"/>
<ellipse cx="102.316" cy="95.6484" rx="4.18831" ry="4.88714" fill="#D7E5FA"/>
<ellipse cx="102.316" cy="113.8" rx="4.18831" ry="4.88714" fill="#D7E5FA"/>
<ellipse cx="102.316" cy="131.953" rx="4.18831" ry="4.88714" fill="#D7E5FA"/>
<ellipse cx="102.316" cy="150.105" rx="4.18831" ry="4.88714" fill="#D7E5FA"/>
<ellipse cx="102.316" cy="168.257" rx="4.18831" ry="4.88714" fill="#D7E5FA"/>
<ellipse cx="102.316" cy="186.409" rx="4.18831" ry="4.88714" fill="#D7E5FA"/>
<ellipse cx="102.316" cy="204.561" rx="4.18831" ry="4.88714" fill="#D7E5FA"/>
<ellipse cx="102.316" cy="222.714" rx="4.18831" ry="4.88714" fill="#D7E5FA"/>
<ellipse cx="102.316" cy="240.866" rx="4.18831" ry="4.88714" fill="#D7E5FA"/>
<ellipse cx="102.316" cy="259.018" rx="4.18831" ry="4.88714" fill="#D7E5FA"/>
<ellipse cx="102.316" cy="277.17" rx="4.18831" ry="4.88714" fill="#D7E5FA"/>
<ellipse cx="102.316" cy="295.323" rx="4.18831" ry="4.88714" fill="#D7E5FA"/>
<ellipse cx="102.316" cy="313.475" rx="4.18831" ry="4.88714" fill="#D7E5FA"/>
<ellipse cx="102.316" cy="331.627" rx="4.18831" ry="4.88714" fill="#D7E5FA"/>
<ellipse cx="118.468" cy="4.88714" rx="3.58998" ry="4.88714" fill="#D7E5FA"/>
<ellipse cx="118.468" cy="23.0395" rx="3.58998" ry="4.88714" fill="#D7E5FA"/>
<ellipse cx="118.468" cy="41.1916" rx="3.58998" ry="4.88714" fill="#D7E5FA"/>
<ellipse cx="118.468" cy="59.3439" rx="3.58998" ry="4.88714" fill="#D7E5FA"/>
<ellipse cx="118.468" cy="77.496" rx="3.58998" ry="4.88714" fill="#D7E5FA"/>
<ellipse cx="118.468" cy="95.6484" rx="3.58998" ry="4.88714" fill="#D7E5FA"/>
<ellipse cx="118.468" cy="113.8" rx="3.58998" ry="4.88714" fill="#D7E5FA"/>
<ellipse cx="118.468" cy="131.953" rx="3.58998" ry="4.88714" fill="#D7E5FA"/>
<ellipse cx="118.468" cy="150.105" rx="3.58998" ry="4.88714" fill="#D7E5FA"/>
<ellipse cx="118.468" cy="168.257" rx="3.58998" ry="4.88714" fill="#D7E5FA"/>
<ellipse cx="118.468" cy="186.409" rx="3.58998" ry="4.88714" fill="#D7E5FA"/>
<ellipse cx="118.468" cy="204.561" rx="3.58998" ry="4.88714" fill="#D7E5FA"/>
<ellipse cx="118.468" cy="222.714" rx="3.58998" ry="4.88714" fill="#D7E5FA"/>
<ellipse cx="118.468" cy="240.866" rx="3.58998" ry="4.88714" fill="#D7E5FA"/>
<ellipse cx="118.468" cy="259.018" rx="3.58998" ry="4.88714" fill="#D7E5FA"/>
<ellipse cx="118.468" cy="277.17" rx="3.58998" ry="4.88714" fill="#D7E5FA"/>
<ellipse cx="118.468" cy="295.323" rx="3.58998" ry="4.88714" fill="#D7E5FA"/>
<ellipse cx="118.468" cy="313.475" rx="3.58998" ry="4.88714" fill="#D7E5FA"/>
<ellipse cx="118.468" cy="331.627" rx="3.58998" ry="4.88714" fill="#D7E5FA"/>
<ellipse cx="134.624" cy="4.88714" rx="4.18831" ry="4.88714" fill="#D7E5FA"/>
<ellipse cx="134.624" cy="23.0395" rx="4.18831" ry="4.88714" fill="#D7E5FA"/>
<ellipse cx="134.624" cy="41.1916" rx="4.18831" ry="4.88714" fill="#D7E5FA"/>
<ellipse cx="134.624" cy="59.3439" rx="4.18831" ry="4.88714" fill="#D7E5FA"/>
<ellipse cx="134.624" cy="77.496" rx="4.18831" ry="4.88714" fill="#D7E5FA"/>
<ellipse cx="134.624" cy="95.6484" rx="4.18831" ry="4.88714" fill="#D7E5FA"/>
<ellipse cx="134.624" cy="113.8" rx="4.18831" ry="4.88714" fill="#D7E5FA"/>
<ellipse cx="134.624" cy="131.953" rx="4.18831" ry="4.88714" fill="#D7E5FA"/>
<ellipse cx="134.624" cy="150.105" rx="4.18831" ry="4.88714" fill="#D7E5FA"/>
<ellipse cx="134.624" cy="168.257" rx="4.18831" ry="4.88714" fill="#D7E5FA"/>
<ellipse cx="134.624" cy="186.409" rx="4.18831" ry="4.88714" fill="#D7E5FA"/>
<ellipse cx="134.624" cy="204.561" rx="4.18831" ry="4.88714" fill="#D7E5FA"/>
<ellipse cx="134.624" cy="222.714" rx="4.18831" ry="4.88714" fill="#D7E5FA"/>
<ellipse cx="134.624" cy="240.866" rx="4.18831" ry="4.88714" fill="#D7E5FA"/>
<ellipse cx="134.624" cy="259.018" rx="4.18831" ry="4.88714" fill="#D7E5FA"/>
<ellipse cx="134.624" cy="277.17" rx="4.18831" ry="4.88714" fill="#D7E5FA"/>
<ellipse cx="134.624" cy="295.323" rx="4.18831" ry="4.88714" fill="#D7E5FA"/>
<ellipse cx="134.624" cy="313.475" rx="4.18831" ry="4.88714" fill="#D7E5FA"/>
<ellipse cx="134.624" cy="331.627" rx="4.18831" ry="4.88714" fill="#D7E5FA"/>
</g>
</svg>
