<svg width="114" height="36" viewBox="0 0 114 36" fill="none" xmlns="http://www.w3.org/2000/svg">
<g clip-path="url(#clip0)">
<path d="M59.2029 24.179C62.7285 20.6534 66.1922 17.2206 69.6559 13.7569C67.522 13.7569 65.3881 13.7569 63.2233 13.7878C63.0378 13.7878 62.7904 13.9734 62.6357 14.1589C60.9657 15.798 59.2957 17.4062 57.6257 19.0452C57.2855 19.3545 56.9763 19.6638 56.5124 20.1277C56.5124 13.4786 56.5124 7.04597 56.5124 0.551514C54.7805 0.551514 53.1414 0.551514 51.5024 0.551514C51.4096 0.551514 51.3168 0.551514 51.1931 0.58244H50.1725V35.3123H56.5124V35.1577H56.5433C56.5433 33.0856 56.5433 31.0445 56.5433 28.9106C56.7907 29.1271 56.9144 29.2508 57.0381 29.3745C58.8318 31.1992 60.6255 33.0238 62.3883 34.8484C62.6666 35.1577 62.9759 35.2814 63.3779 35.2814C65.4191 35.2505 67.4911 35.2814 69.5322 35.2814C69.7178 35.2814 69.9343 35.2505 70.2744 35.2505C66.5943 31.5393 62.9759 27.9519 59.2029 24.179Z" fill="white"/>
<path d="M15.3808 24.7666C15.3808 26.7768 13.8036 28.354 11.7934 28.354C9.78324 28.354 8.14417 26.7459 8.14417 24.7357C8.14417 22.6946 9.72139 21.2101 11.7625 21.1174C13.7108 21.0246 15.5355 22.8801 15.3808 24.7666Z" fill="#7DCAAE"/>
<path d="M113.169 20.1277C113.169 18.0556 112.303 16.3238 110.633 15.0249C109.148 13.8497 107.417 13.324 105.561 13.2312C104.262 13.1693 103.056 13.3549 102.005 14.0043C101.943 14.0353 101.912 14.0662 101.85 14.0971C101.819 14.128 101.788 14.128 101.757 14.159C101.417 14.4064 101.108 14.6847 100.829 14.994C100.767 15.0867 100.675 15.1486 100.613 15.2414L100.582 15.2723C100.087 15.8599 99.8088 16.3856 99.8088 16.3856V15.6434C99.8088 14.9321 99.8088 14.4064 99.8088 13.8806C96.9636 13.8806 96.2832 13.8806 93.5308 13.8806C93.5308 21.0555 93.5308 28.1684 93.5308 35.2814C96.3451 35.2814 97.0564 35.2814 99.8397 35.2814C99.8397 35.1268 99.8706 35.0031 99.8706 34.8794C99.8706 32.2197 99.8706 29.5601 99.8706 26.9005C99.8706 25.3542 99.8397 23.8079 99.8706 22.2616C99.9325 20.4679 100.984 19.2308 102.592 18.9525C104.448 18.6123 105.932 19.2927 106.52 20.808C106.736 21.3647 106.86 21.9832 106.86 22.5708C106.891 26.5603 106.86 30.5807 106.86 34.5701C106.86 34.8175 106.86 35.034 106.86 35.2814C108.994 35.2814 111.066 35.2814 113.107 35.2814C113.107 35.1577 113.138 35.0649 113.138 34.9721C113.169 29.9931 113.2 25.0449 113.169 20.1277Z" fill="white"/>
<path d="M27.5348 28.8798C27.5348 30.9518 28.4007 32.6837 30.0707 33.9826C31.5552 35.1578 33.287 35.6835 35.1426 35.7763C36.4415 35.8382 37.6476 35.6526 38.6991 35.0031C38.7609 34.9722 38.7918 34.9413 38.8537 34.9104C38.8846 34.8794 38.9156 34.8794 38.9465 34.8485C39.2867 34.6011 39.5959 34.3228 39.8743 34.0135C39.9361 33.9207 40.0289 33.8589 40.0907 33.7661L40.1217 33.7352C40.6165 33.1476 40.8948 32.6218 40.8948 32.6218V33.3641C40.8948 34.0754 40.8948 34.6011 40.8948 35.1269C43.74 35.1269 44.4204 35.1269 47.1728 35.1269C47.1728 27.952 47.1728 20.839 47.1728 13.7261C44.3585 13.7261 43.6472 13.7261 40.8639 13.7261C40.8639 13.8807 40.833 14.0044 40.833 14.1281C40.833 16.7877 40.833 19.4474 40.833 22.107C40.833 23.6533 40.8639 25.1996 40.833 26.7459C40.7711 28.5396 39.7196 29.7767 38.1115 30.055C36.2559 30.3952 34.7715 29.7148 34.1839 28.1994C33.9674 27.6428 33.8437 27.0242 33.8437 26.4367C33.8128 22.4472 33.8437 18.4268 33.8437 14.4374C33.8437 14.19 33.8437 13.9735 33.8437 13.7261C31.7098 13.7261 29.6378 13.7261 27.5966 13.7261C27.5966 13.8498 27.5657 13.9426 27.5657 14.0353C27.5348 19.0144 27.5039 23.9316 27.5348 28.8798Z" fill="white"/>
<path d="M18.1951 0.556152C18.1951 1.42208 18.1951 2.28801 18.1951 3.12301C18.1951 4.85486 18.1951 6.58672 18.1951 8.31858C18.1951 10.8545 18.1951 13.3595 18.1951 15.8336C16.3705 14.5347 14.1747 13.7615 11.7625 13.7615C5.6701 13.7306 0.752869 18.6788 0.752869 24.7403C0.752869 30.8018 5.6701 35.7499 11.7625 35.7499C14.1747 35.7499 16.3705 34.9768 18.1951 33.6779V33.7088V33.8325V35.2551C20.2362 35.2551 22.5557 35.2551 24.5659 35.2551C24.5659 23.6579 24.5659 12.1225 24.5659 0.556152C22.5248 0.556152 20.2053 0.556152 18.1951 0.556152ZM16.556 24.7712C16.556 27.3999 14.4531 29.5029 11.7934 29.5338C9.13381 29.5647 6.96899 27.3999 6.96899 24.7403C6.96899 22.0497 9.07196 20.0705 11.7625 19.9467C14.3603 19.854 16.7416 22.2662 16.556 24.7712Z" fill="white"/>
<path d="M81.4078 24.7666C81.4078 26.7768 79.8306 28.354 77.8204 28.354C75.8102 28.354 74.1711 26.7459 74.1711 24.7357C74.1711 22.6946 75.7484 21.2101 77.7895 21.1174C79.7378 21.0246 81.5624 22.8801 81.4078 24.7666Z" fill="#7DCAAE"/>
<path d="M84.2221 13.7568C84.2221 14.6228 84.2221 15.4887 84.2221 16.3237C84.2221 18.0555 84.2221 19.7874 84.2221 21.5193C84.2221 24.0552 84.2221 13.3548 84.2221 15.8289C82.3975 14.53 80.2017 13.7568 77.7895 13.7568C71.728 13.7568 66.7798 18.6741 66.7798 24.7665C66.7798 30.8589 71.6971 35.7761 77.7895 35.7761C80.2017 35.7761 82.3975 35.003 84.2221 33.7041V33.735V33.8587V35.2813C86.2632 35.2813 88.5827 35.2813 90.5929 35.2813C90.5929 23.6841 90.5929 25.3541 90.5929 13.7878C88.5517 13.7568 86.2323 13.7568 84.2221 13.7568ZM82.583 24.7665C82.583 27.3952 80.4801 29.4982 77.8204 29.5291C75.1608 29.56 72.996 27.3952 72.996 24.7356C72.996 22.045 75.0989 20.0657 77.7895 19.942C80.3873 19.8493 82.7686 22.2615 82.583 24.7665Z" fill="white"/>
</g>
<defs>
<clipPath id="clip0">
<rect width="112.416" height="35.2556" fill="white" transform="translate(0.752869 0.520508)"/>
</clipPath>
</defs>
</svg>
