<svg width="33" height="33" viewBox="0 0 33 33" fill="none" xmlns="http://www.w3.org/2000/svg">
<g clip-path="url(#clip0)">
<path d="M22.1896 32.0856C21.6461 32.0856 21.2049 31.6445 21.2049 31.101C21.2049 30.5574 21.6461 30.1163 22.1896 30.1163H28.6738L16.2817 17.7242L3.88959 30.1163H10.3738C10.9173 30.1163 11.3585 30.5574 11.3585 31.101C11.3585 31.6445 10.9173 32.0856 10.3738 32.0856H1.51199C1.39646 32.0856 1.28224 32.0646 1.17065 32.0239C1.16014 32.02 1.15095 32.0173 1.14176 32.0134C0.894945 31.9123 0.700642 31.7167 0.600864 31.4751C0.596925 31.4659 0.592987 31.4554 0.589048 31.4449C0.549662 31.3373 0.527344 31.2204 0.527344 31.101V22.2391C0.527344 21.6956 0.968466 21.2545 1.51199 21.2545C2.05552 21.2545 2.49664 21.6956 2.49664 22.2391V28.7234L14.8887 16.3313L2.49664 3.93915V10.4234C2.49664 10.9669 2.05552 11.408 1.51199 11.408C0.968466 11.408 0.527344 10.9669 0.527344 10.4234V1.56155C0.527344 1.44602 0.54835 1.33049 0.590361 1.21889C0.592987 1.2097 0.596925 1.20051 0.599551 1.19132C0.700642 0.945819 0.896258 0.750202 1.13782 0.650425C1.14701 0.647799 1.15883 0.642547 1.17065 0.638609C1.28355 0.596597 1.39646 0.576904 1.51199 0.576904H10.3738C10.9173 0.576904 11.3585 1.01803 11.3585 1.56155C11.3585 2.10508 10.9173 2.5462 10.3738 2.5462H3.88959L16.2817 14.9396L28.6738 2.54751H22.1896C21.6461 2.54751 21.2049 2.10639 21.2049 1.56286C21.2049 1.01934 21.6461 0.578217 22.1896 0.578217H31.0514C31.1682 0.578217 31.2825 0.599223 31.3941 0.641235C31.4085 0.646486 31.4229 0.651737 31.4361 0.656989C31.6671 0.751515 31.8627 0.947132 31.9625 1.1887C31.9665 1.1992 31.9717 1.21102 31.9757 1.22283C32.015 1.32786 32.036 1.44471 32.036 1.56155V10.4234C32.036 10.9669 31.5949 11.408 31.0514 11.408C30.5079 11.408 30.0668 10.9669 30.0668 10.4234V3.93915L17.6746 16.3313L30.0668 28.7234V22.2391C30.0668 21.6956 30.5079 21.2545 31.0514 21.2545C31.5949 21.2545 32.036 21.6956 32.036 22.2391V31.101C32.036 31.2152 32.015 31.3294 31.9757 31.4397C31.973 31.4476 31.9704 31.4541 31.9678 31.4607C31.8627 31.7167 31.6671 31.9123 31.4269 32.0108C31.4164 32.0147 31.4046 32.02 31.3927 32.0239C31.2851 32.0646 31.1696 32.0856 31.0527 32.0856H22.1896Z" fill="white"/>
</g>
<defs>
<clipPath id="clip0">
<rect width="31.5087" height="31.5087" fill="white" transform="translate(0.527344 0.580322)"/>
</clipPath>
</defs>
</svg>
