<svg width="16" height="17" viewBox="0 0 16 17" fill="none" xmlns="http://www.w3.org/2000/svg">
<path d="M0.0599284 13.3946C0.0363628 13.5136 0.0519736 13.6377 0.104151 13.746C0.156329 13.8543 0.241912 13.9403 0.346595 13.9896C2.07883 14.8501 3.96143 15.3158 5.87326 15.3566C7.58622 15.384 9.26908 14.8766 10.7133 13.8975C11.884 13.0836 12.8473 11.9748 13.5172 10.6698C14.1872 9.36475 14.5431 7.90398 14.5533 6.41748V6.09873L15.7466 5.18498C15.8221 5.13057 15.8821 5.05525 15.9202 4.96719C15.9583 4.87912 15.973 4.78165 15.9627 4.68535C15.9524 4.58904 15.9175 4.49757 15.8618 4.42083C15.8061 4.34409 15.7317 4.285 15.6466 4.24998L14.7199 3.82498L15.2399 2.62081C15.2761 2.52735 15.2863 2.42489 15.2696 2.32543C15.2529 2.22597 15.2098 2.13365 15.1454 2.0593C15.081 1.98494 14.998 1.93164 14.9061 1.90563C14.8142 1.87963 14.7173 1.882 14.6266 1.91248L13.1799 2.42248C12.5713 1.91478 11.8204 1.63801 11.0466 1.63623C10.1189 1.6381 9.22966 2.0305 8.57367 2.7275C7.91767 3.42449 7.54836 4.36928 7.54659 5.35498V5.60998C5.73326 5.83665 3.99993 4.85206 2.09326 2.52873C2.03167 2.45406 1.95161 2.39923 1.86217 2.37045C1.77273 2.34167 1.6775 2.3401 1.58726 2.36591C1.49702 2.39172 1.4154 2.44389 1.35165 2.51649C1.2879 2.58909 1.24458 2.67921 1.22659 2.77665C0.952635 3.98108 1.06769 5.24839 1.55326 6.37498L0.626595 6.24748C0.546973 6.23436 0.465546 6.24188 0.38925 6.2694C0.312953 6.29693 0.244045 6.34363 0.188396 6.40554C0.132746 6.46745 0.0920024 6.54273 0.0696344 6.62498C0.0472663 6.70722 0.0439365 6.79399 0.0599284 6.8779C0.134284 7.45189 0.330846 8.00031 0.634668 8.48146C0.93849 8.96261 1.34157 9.36381 1.81326 9.65456L1.37993 9.82456C1.31738 9.85089 1.26048 9.89035 1.21263 9.94059C1.16477 9.99083 1.12695 10.0508 1.10143 10.1169C1.07591 10.1831 1.06322 10.254 1.0641 10.3255C1.06499 10.397 1.07944 10.4675 1.10659 10.5329C1.3332 11.0211 1.66723 11.444 2.08038 11.7658C2.49352 12.0876 2.9736 12.2989 3.47993 12.3816C2.54708 12.7663 1.55383 12.9586 0.553262 12.9483C0.434559 12.9484 0.319748 12.9933 0.229364 13.0751C0.13898 13.1568 0.0789207 13.2701 0.0599284 13.3946ZM5.33326 12.5162C5.41482 12.4521 5.47609 12.3632 5.50894 12.2612C5.54179 12.1592 5.54466 12.049 5.51717 11.9452C5.48968 11.8415 5.43313 11.749 5.35503 11.6802C5.27694 11.6114 5.18099 11.5695 5.07993 11.56C3.66659 11.4396 2.83326 11.2554 2.29993 10.5896L3.54659 10.1079C3.65248 10.067 3.74227 9.98939 3.80143 9.88753C3.86058 9.78567 3.88563 9.66557 3.87251 9.5467C3.8594 9.42782 3.80888 9.31714 3.72916 9.23258C3.64943 9.14802 3.54517 9.09454 3.43326 9.08081C2.9564 9.0614 2.49515 8.89503 2.10571 8.60199C1.71627 8.30895 1.41546 7.90189 1.23993 7.4304L2.66659 7.65706C2.77284 7.67361 2.88128 7.65338 2.97587 7.59936C3.07045 7.54533 3.14615 7.46039 3.19177 7.3571C3.23738 7.25381 3.25049 7.13766 3.22915 7.02584C3.2078 6.91403 3.15315 6.81248 3.07326 6.73623C2.72992 6.40385 2.463 5.99214 2.29309 5.53283C2.12318 5.07352 2.05481 4.57888 2.09326 4.08706C4.09326 6.21206 6.09326 7.04081 8.15326 6.58748C8.26564 6.56311 8.36671 6.49843 8.43954 6.40429C8.51237 6.31014 8.55252 6.19226 8.55326 6.0704V5.36206C8.55085 4.84657 8.69043 4.34158 8.9548 3.90932C9.21917 3.47707 9.59678 3.13643 10.0411 2.92937C10.4854 2.72231 10.977 2.65788 11.4554 2.74402C11.9338 2.83016 12.378 3.0631 12.7333 3.41415C12.7993 3.47909 12.8806 3.5239 12.9686 3.54385C13.0566 3.56379 13.148 3.55814 13.2333 3.52748L13.8533 3.3079L13.5999 3.89581C13.5733 3.96186 13.5596 4.03294 13.5596 4.10477C13.5596 4.1766 13.5733 4.24769 13.5999 4.31373C13.6599 4.47665 13.6733 4.51206 14.4533 4.87331L13.7866 5.39748C13.7224 5.44692 13.6701 5.51189 13.6342 5.58702C13.5982 5.66215 13.5796 5.74529 13.5799 5.82956V6.41748C13.5712 7.72645 13.2581 9.01284 12.6684 10.1621C12.0787 11.3115 11.2307 12.288 10.1999 13.005C8.19993 14.4216 5.56659 14.6554 2.71993 13.7771C3.66008 13.5419 4.54786 13.1135 5.33326 12.5162Z" fill="#9A9A9A"/>
</svg>
