<svg width="16" height="15" viewBox="0 0 16 15" fill="none" xmlns="http://www.w3.org/2000/svg">
<g clip-path="url(#clip0)">
<path d="M5.06193 15H11.4688C12.5617 15 13.6099 14.5557 14.3833 13.7647C15.1567 12.9737 15.592 11.9007 15.5936 10.7812V4.21875C15.592 3.09929 15.1567 2.02625 14.3833 1.23526C13.6099 0.444273 12.5617 -1.22485e-06 11.4688 0L5.06193 0C3.97114 0.00330439 2.92604 0.449038 2.1553 1.23967C1.38456 2.0303 0.95095 3.10146 0.949341 4.21875L0.949341 10.7812C0.95095 11.8985 1.38456 12.9697 2.1553 13.7603C2.92604 14.551 3.97114 14.9967 5.06193 15ZM1.8585 4.21875C1.86012 3.34902 2.19814 2.51538 2.79855 1.90038C3.39896 1.28538 4.21283 0.939152 5.06193 0.9375H11.4688C12.3179 0.939152 13.1318 1.28538 13.7322 1.90038C14.3326 2.51538 14.6706 3.34902 14.6722 4.21875V10.7812C14.6706 11.651 14.3326 12.4846 13.7322 13.0996C13.1318 13.7146 12.3179 14.0608 11.4688 14.0625H5.06193C4.21283 14.0608 3.39896 13.7146 2.79855 13.0996C2.19814 12.4846 1.86012 11.651 1.8585 10.7812V4.21875Z" fill="#9A9A9A"/>
<path d="M8.27142 11.0937C8.96508 11.0925 9.64282 10.8807 10.219 10.4851C10.7952 10.0894 11.2439 9.52772 11.5085 8.87094C11.7731 8.21416 11.8417 7.49177 11.7057 6.79507C11.5696 6.09836 11.235 5.4586 10.7441 4.95663C10.2531 4.45466 9.62798 4.11301 8.94756 3.97485C8.26714 3.83669 7.56201 3.90822 6.92126 4.18041C6.28052 4.45259 5.73293 4.91321 5.34768 5.50407C4.96242 6.09492 4.75681 6.78948 4.75681 7.49999C4.75842 8.45369 5.12942 9.36776 5.78837 10.0415C6.44731 10.7153 7.34034 11.0937 8.27142 11.0937ZM8.27142 4.84375C8.78406 4.84498 9.28484 5.00182 9.71049 5.29444C10.1361 5.58706 10.4676 6.00234 10.6629 6.48782C10.8583 6.97329 10.9087 7.50717 10.808 8.02202C10.7072 8.53687 10.4598 9.00959 10.0969 9.38044C9.73396 9.7513 9.27187 10.0037 8.769 10.1057C8.26613 10.2076 7.74502 10.1547 7.27152 9.95344C6.79802 9.75222 6.39337 9.41176 6.10869 8.97508C5.82401 8.53839 5.67207 8.02508 5.67207 7.49999C5.67369 6.79494 5.94826 6.11933 6.43556 5.62136C6.92286 5.1234 7.58309 4.84374 8.27142 4.84375Z" fill="#9A9A9A"/>
<path d="M12.4451 4C12.8663 4 13.2078 3.65022 13.2078 3.21875C13.2078 2.78728 12.8663 2.4375 12.4451 2.4375C12.0238 2.4375 11.6823 2.78728 11.6823 3.21875C11.6823 3.65022 12.0238 4 12.4451 4Z" fill="#9A9A9A"/>
</g>
<defs>
<clipPath id="clip0">
<rect width="14.6442" height="15" fill="white" transform="translate(0.949341)"/>
</clipPath>
</defs>
</svg>
