<svg width="9" height="15" viewBox="0 0 9 15" fill="none" xmlns="http://www.w3.org/2000/svg">
<path d="M0.581839 7.81242H1.95474V14.5312C1.95474 14.6555 2.00295 14.7747 2.08877 14.8626C2.1746 14.9505 2.291 14.9999 2.41237 14.9999H5.46325C5.58463 14.9999 5.70103 14.9505 5.78685 14.8626C5.87267 14.7747 5.92089 14.6555 5.92089 14.5312V7.81242H7.81243C7.9258 7.81308 8.03538 7.77062 8.11993 7.69325C8.20447 7.61589 8.25798 7.50913 8.27007 7.39367L8.52634 4.89367C8.53328 4.82752 8.52639 4.76061 8.50613 4.69739C8.48588 4.63417 8.45271 4.5761 8.40884 4.52703C8.36498 4.47796 8.31141 4.43901 8.25172 4.41279C8.19202 4.38656 8.12755 4.37365 8.06261 4.37492H5.92089V3.64992C5.92089 3.43742 5.9819 3.43117 6.07953 3.43117H7.91006C8.03143 3.43117 8.14783 3.38178 8.23366 3.29388C8.31948 3.20597 8.36769 3.08674 8.36769 2.96242V0.46242C8.3669 0.400861 8.35427 0.340066 8.33054 0.283506C8.3068 0.226947 8.27242 0.17573 8.22935 0.132782C8.18629 0.0898339 8.13539 0.0559953 8.07956 0.0331986C8.02373 0.010402 7.96406 -0.000906103 7.90396 -7.98487e-05H5.2619C2.21101 -7.98487e-05 1.95474 2.68117 1.95474 3.49992V4.37492H0.581839C0.460467 4.37492 0.344067 4.42431 0.258244 4.51221C0.172421 4.60012 0.124207 4.71935 0.124207 4.84367V7.34367C0.124207 7.46799 0.172421 7.58722 0.258244 7.67513C0.344067 7.76303 0.460467 7.81242 0.581839 7.81242ZM1.03947 5.31242H2.41237C2.53374 5.31242 2.65014 5.26303 2.73597 5.17513C2.82179 5.08722 2.87 4.96799 2.87 4.84367V3.49992C2.87 2.54367 3.18119 0.93742 5.2619 0.93742H7.44633V2.49992H6.07953C5.93247 2.495 5.78606 2.522 5.64991 2.57913C5.51375 2.63627 5.39094 2.72226 5.28952 2.83145C5.1881 2.94064 5.11038 3.07057 5.06145 3.21271C5.01252 3.35484 4.9935 3.50597 5.00562 3.65617V4.84367C5.00562 4.96799 5.05384 5.08722 5.13966 5.17513C5.22548 5.26303 5.34188 5.31242 5.46325 5.31242H7.55616L7.37311 6.87492H5.46325C5.34188 6.87492 5.22548 6.92431 5.13966 7.01221C5.05384 7.10012 5.00562 7.21935 5.00562 7.34367V14.0624H2.87V7.34367C2.87 7.21935 2.82179 7.10012 2.73597 7.01221C2.65014 6.92431 2.53374 6.87492 2.41237 6.87492H1.03947V5.31242Z" fill="#9A9A9A"/>
</svg>
