<svg width="15" height="15" viewBox="0 0 15 15" fill="none" xmlns="http://www.w3.org/2000/svg">
<g clip-path="url(#clip0)">
<path d="M0.953735 4.93262C0.833243 4.93262 0.717686 4.98165 0.632486 5.06892C0.547285 5.15619 0.49942 5.27455 0.49942 5.39797V14.0411C0.49942 14.1645 0.547285 14.2829 0.632486 14.3701C0.717686 14.4574 0.833243 14.5064 0.953735 14.5064H3.89769C4.01818 14.5064 4.13374 14.4574 4.21894 14.3701C4.30414 14.2829 4.35201 14.1645 4.35201 14.0411V5.39797C4.35201 5.27455 4.30414 5.15619 4.21894 5.06892C4.13374 4.98165 4.01818 4.93262 3.89769 4.93262H0.953735ZM3.44338 13.5757H1.40805V5.86332H3.44338V13.5757Z" fill="#9A9A9A"/>
<path d="M11.2989 4.92651C10.5501 4.93161 9.81465 5.13008 9.16059 5.50355V5.39807C9.16059 5.27465 9.11273 5.15629 9.02753 5.06902C8.94233 4.98175 8.82677 4.93272 8.70628 4.93272H5.61694C5.49645 4.93272 5.38089 4.98175 5.29569 5.06902C5.21049 5.15629 5.16263 5.27465 5.16263 5.39807V14.0412C5.16263 14.1646 5.21049 14.283 5.29569 14.3702C5.38089 14.4575 5.49645 14.5065 5.61694 14.5065H8.71234C8.83283 14.5065 8.94839 14.4575 9.03359 14.3702C9.11879 14.283 9.16665 14.1646 9.16665 14.0412V9.5428C9.16665 9.31324 9.25568 9.09308 9.41415 8.93076C9.57263 8.76844 9.78756 8.67724 10.0117 8.67724C10.2358 8.67724 10.4507 8.76844 10.6092 8.93076C10.7677 9.09308 10.8567 9.31324 10.8567 9.5428V14.0412C10.8567 14.1646 10.9046 14.283 10.9898 14.3702C11.075 14.4575 11.1905 14.5065 11.311 14.5065H14.5578C14.6783 14.5065 14.7939 14.4575 14.8791 14.3702C14.9643 14.283 15.0122 14.1646 15.0122 14.0412V9.61725C15 6.71967 13.5886 4.92651 11.2989 4.92651ZM14.0975 13.5758H11.7593V9.5428C11.7593 9.0664 11.5745 8.60952 11.2456 8.27265C10.9168 7.93579 10.4707 7.74654 10.0056 7.74654C9.54052 7.74654 9.09447 7.93579 8.7656 8.27265C8.43672 8.60952 8.25197 9.0664 8.25197 9.5428V13.5758H6.07126V5.86342H8.25802V6.38461C8.25801 6.47517 8.28379 6.56375 8.33221 6.63952C8.38062 6.71528 8.44957 6.77493 8.53059 6.81116C8.61161 6.84739 8.70119 6.85861 8.78835 6.84346C8.8755 6.82831 8.95645 6.78745 9.02127 6.72587C9.66402 6.17893 10.4695 5.87256 11.305 5.85722C13.0798 5.85722 14.1035 7.22845 14.1035 9.61725L14.0975 13.5758Z" fill="#9A9A9A"/>
<path d="M2.42458 4.42403C2.81421 4.42525 3.19543 4.30803 3.51998 4.0872C3.84452 3.86637 4.0978 3.55186 4.24773 3.1835C4.39767 2.81514 4.43752 2.40949 4.36224 2.01792C4.28697 1.62634 4.09995 1.26645 3.82486 0.983816C3.54978 0.70118 3.199 0.508508 2.81695 0.430195C2.43489 0.351883 2.03874 0.391453 1.67866 0.543895C1.31857 0.696337 1.01075 0.954794 0.794155 1.28654C0.577563 1.61829 0.461946 2.00841 0.461945 2.4075C0.461942 2.94125 0.668526 3.45322 1.03642 3.83121C1.40431 4.2092 1.9035 4.42238 2.42458 4.42403ZM2.42458 1.32168C2.63424 1.32168 2.8392 1.38537 3.01352 1.50468C3.18785 1.62399 3.32372 1.79357 3.40396 1.99198C3.48419 2.19039 3.50518 2.40871 3.46428 2.61934C3.42338 2.82997 3.32242 3.02344 3.17416 3.17529C3.02591 3.32715 2.83702 3.43056 2.63139 3.47246C2.42576 3.51436 2.21261 3.49285 2.01891 3.41067C1.82521 3.32849 1.65965 3.18932 1.54317 3.01075C1.42669 2.83219 1.36452 2.62226 1.36452 2.4075C1.36452 2.11953 1.4762 1.84334 1.675 1.63971C1.8738 1.43608 2.14344 1.32168 2.42458 1.32168Z" fill="#9A9A9A"/>
</g>
<defs>
<clipPath id="clip0">
<rect width="14.5381" height="14.8912" fill="white" transform="translate(0.461945)"/>
</clipPath>
</defs>
</svg>
