<svg width="139" height="44" viewBox="0 0 139 44" fill="none" xmlns="http://www.w3.org/2000/svg">
<g clip-path="url(#clip0)">
<path d="M72.2023 29.4956C76.546 25.115 80.8898 20.8319 85.137 16.4513C82.5307 16.4513 79.828 16.4513 77.2217 16.4513C76.9321 16.4513 76.6425 16.7434 76.4495 16.9381C74.4224 18.9823 72.2988 21.0265 70.2717 23.0708C69.8856 23.4602 69.4995 23.8496 68.9203 24.4336C68.9203 16.1593 68.9203 8.07965 68.9203 0C66.7967 0 64.7696 0 62.7425 0C62.646 0 62.453 0 62.3564 0H61.1016V43.3186H68.9203V43.1239C68.9203 43.1239 68.9203 43.1239 69.0168 43.1239C69.0168 40.5929 69.0168 38.0619 69.0168 35.3363C69.3064 35.6283 69.4995 35.7257 69.596 35.9204C71.8161 38.1593 74.0363 40.4956 76.2564 42.7345C76.6425 43.1239 76.9321 43.3186 77.5113 43.3186C80.021 43.3186 82.6273 43.3186 85.137 43.3186C85.33 43.3186 85.6196 43.3186 86.0057 43.3186C81.3724 38.646 76.9321 34.1681 72.2023 29.4956Z" fill="#416FB3"/>
<path d="M18.0513 30.2743C18.0513 32.8053 16.1207 34.7522 13.611 34.7522C11.1013 34.7522 9.07422 32.7079 9.07422 30.2743C9.07422 27.7433 11.0048 25.8938 13.5145 25.7964C16.0242 25.6017 18.2444 27.8407 18.0513 30.2743Z" fill="#7DCAAE"/>
<path d="M139.001 24.4336C139.001 21.8053 137.939 19.6637 135.912 18.1062C134.078 16.646 131.955 15.9646 129.638 15.8672C127.997 15.7699 126.549 16.0619 125.294 16.8407C125.198 16.8407 125.198 16.938 125.101 16.938C125.101 16.938 125.005 16.938 125.005 17.0354C124.618 17.3274 124.232 17.7168 123.846 18.1062C123.75 18.2035 123.653 18.3009 123.557 18.3982C122.977 19.177 122.591 19.7611 122.591 19.7611V18.8849C122.591 18.0088 122.591 17.3274 122.591 16.646C119.116 16.646 118.248 16.646 114.869 16.646C114.869 25.6018 114.869 34.4602 114.869 43.3186C118.344 43.3186 119.213 43.3186 122.688 43.3186C122.688 43.1239 122.688 42.9292 122.688 42.8319C122.688 39.5221 122.688 36.2124 122.688 32.9026C122.688 30.9557 122.591 29.0088 122.688 27.1593C122.784 24.9203 124.039 23.3628 126.066 22.9734C128.383 22.5841 130.217 23.3628 130.893 25.3097C131.182 25.9911 131.279 26.7699 131.279 27.5487C131.279 32.5133 131.279 37.4779 131.279 42.5398C131.279 42.8319 131.279 43.1239 131.279 43.4159C133.982 43.4159 136.491 43.4159 139.001 43.4159C139.001 43.2212 139.001 43.1239 139.001 43.0265C139.001 36.6991 139.001 30.5664 139.001 24.4336Z" fill="#416FB3"/>
<path d="M33.1094 35.3363C33.1094 37.9646 34.1712 40.1062 36.1983 41.6637C38.0323 43.1239 40.1559 43.8053 42.4726 43.9027C44.1135 44 45.5615 43.708 46.8163 42.9292C46.9128 42.9292 46.9128 42.8319 47.0094 42.8319C47.0094 42.8319 47.1059 42.8319 47.1059 42.7345C47.492 42.4425 47.8781 42.0531 48.2642 41.6637C48.3608 41.5664 48.4573 41.4691 48.5538 41.3717C49.133 40.5929 49.5191 40.0089 49.5191 40.0089V40.885C49.5191 41.7611 49.5191 42.4425 49.5191 43.1239C52.9941 43.1239 53.8628 43.1239 57.2413 43.1239C57.2413 34.1682 57.2413 25.3098 57.2413 16.4513C53.7663 16.4513 52.8976 16.4513 49.4226 16.4513C49.4226 16.646 49.4226 16.8407 49.4226 16.9381C49.4226 20.2478 49.4226 23.5575 49.4226 26.8673C49.4226 28.8142 49.5191 30.7611 49.4226 32.6106C49.326 34.8496 48.0712 36.4071 46.0441 36.7965C43.7274 37.1859 41.8934 36.4071 41.2177 34.4602C40.9281 33.7788 40.8316 33 40.8316 32.2213C40.8316 27.2567 40.8316 22.2921 40.8316 17.2301C40.8316 16.9381 40.8316 16.646 40.8316 16.354C38.1288 16.354 35.6191 16.354 33.1094 16.354C33.1094 16.5487 33.1094 16.646 33.1094 16.7434C33.1094 23.0708 33.1094 29.2036 33.1094 35.3363Z" fill="#416FB3"/>
<path d="M21.5257 0C21.5257 1.0708 21.5257 2.14159 21.5257 3.21239C21.5257 5.35398 21.5257 7.49557 21.5257 9.63717C21.5257 12.7522 21.5257 15.9646 21.5257 18.9823C19.3056 17.3274 16.5063 16.354 13.6104 16.354C6.08125 16.4513 0 22.5841 0 30.177C0 37.7699 6.08125 43.9027 13.6104 43.9027C16.6028 43.9027 19.3056 42.9292 21.5257 41.2743V41.3717V41.5664V43.3186C24.0354 43.3186 26.9313 43.3186 29.3444 43.3186C29.3444 28.9115 29.3444 14.5044 29.3444 0C26.9313 0 24.0354 0 21.5257 0ZM19.4986 30.2743C19.4986 33.5841 16.8924 36.2124 13.6104 36.2124C10.3285 36.2124 7.6257 33.5841 7.6257 30.2743C7.6257 26.9646 10.2319 24.4336 13.5139 24.3363C16.7958 24.0442 19.7882 27.1593 19.4986 30.2743Z" fill="#416FB3"/>
<path d="M99.7134 30.2743C99.7134 32.8053 97.7828 34.7522 95.2731 34.7522C92.7634 34.7522 90.7363 32.7079 90.7363 30.2743C90.7363 27.7433 92.6669 25.8938 95.1766 25.7964C97.6863 25.6017 99.9065 27.8407 99.7134 30.2743Z" fill="#7DCAAE"/>
<path d="M103.188 16.4513C103.188 17.5221 103.188 18.5929 103.188 19.6637C103.188 21.8053 103.188 23.9469 103.188 26.0885C103.188 29.2036 103.188 15.9646 103.188 18.9823C100.968 17.3275 98.1684 16.354 95.2725 16.354C87.7434 16.354 81.6621 22.4867 81.6621 30.0797C81.6621 37.6726 87.7434 43.8053 95.2725 43.8053C98.2649 43.8053 100.968 42.8319 103.188 41.177V41.2744V41.469V43.2213C105.698 43.2213 108.593 43.2213 111.007 43.2213C111.007 28.8142 111.007 30.8584 111.007 16.4513C108.497 16.4513 105.698 16.4513 103.188 16.4513ZM101.161 30.2744C101.161 33.5841 98.5545 36.2124 95.2725 36.2124C91.9906 36.2124 89.2878 33.5841 89.2878 30.2744C89.2878 26.9646 91.8941 24.4337 95.176 24.3363C98.4579 24.0443 101.354 27.1593 101.161 30.2744Z" fill="#416FB3"/>
</g>
<defs>
<clipPath id="clip0">
<rect width="139" height="44" fill="white"/>
</clipPath>
</defs>
</svg>
