<svg width="18" height="12" viewBox="0 0 18 12" fill="none" xmlns="http://www.w3.org/2000/svg">
<path d="M0.875 11.6275C0.53 11.6275 0.25 11.3475 0.25 11.0025C0.25 10.6575 0.53 10.3775 0.875 10.3775H17.125C17.47 10.3775 17.75 10.6575 17.75 11.0025C17.75 11.3475 17.47 11.6275 17.125 11.6275H0.875Z" fill="#1C2E47"/>
<path d="M0.875 6.6275C0.53 6.6275 0.25 6.3475 0.25 6.0025C0.25 5.6575 0.53 5.3775 0.875 5.3775H17.125C17.47 5.3775 17.75 5.6575 17.75 6.0025C17.75 6.3475 17.47 6.6275 17.125 6.6275H0.875Z" fill="#1C2E47"/>
<path d="M0.875 1.6275C0.53 1.6275 0.25 1.3475 0.25 1.0025C0.25 0.657502 0.53 0.377502 0.875 0.377502H17.125C17.47 0.377502 17.75 0.657502 17.75 1.0025C17.75 1.3475 17.47 1.6275 17.125 1.6275H0.875Z" fill="#1C2E47"/>
</svg>
