<svg width="48" height="91" viewBox="0 0 48 91" fill="none" xmlns="http://www.w3.org/2000/svg">
<g opacity="0.3">
<ellipse cx="1.318" cy="1.32063" rx="1.318" ry="1.32063" fill="#7DCAAE"/>
<ellipse cx="1.318" cy="6.22591" rx="1.318" ry="1.32063" fill="#7DCAAE"/>
<ellipse cx="1.318" cy="11.1311" rx="1.318" ry="1.32063" fill="#7DCAAE"/>
<ellipse cx="1.318" cy="16.0363" rx="1.318" ry="1.32063" fill="#7DCAAE"/>
<ellipse cx="1.318" cy="20.9414" rx="1.318" ry="1.32063" fill="#7DCAAE"/>
<ellipse cx="1.318" cy="25.8467" rx="1.318" ry="1.32063" fill="#7DCAAE"/>
<ellipse cx="1.318" cy="30.7519" rx="1.318" ry="1.32063" fill="#7DCAAE"/>
<ellipse cx="1.318" cy="35.6571" rx="1.318" ry="1.32063" fill="#7DCAAE"/>
<ellipse cx="1.318" cy="40.5623" rx="1.318" ry="1.32063" fill="#7DCAAE"/>
<ellipse cx="1.318" cy="45.4676" rx="1.318" ry="1.32063" fill="#7DCAAE"/>
<ellipse cx="1.318" cy="50.3728" rx="1.318" ry="1.32063" fill="#7DCAAE"/>
<ellipse cx="1.318" cy="55.278" rx="1.318" ry="1.32063" fill="#7DCAAE"/>
<ellipse cx="1.318" cy="60.1832" rx="1.318" ry="1.32063" fill="#7DCAAE"/>
<ellipse cx="1.318" cy="65.0884" rx="1.318" ry="1.32063" fill="#7DCAAE"/>
<ellipse cx="1.318" cy="69.9936" rx="1.318" ry="1.32063" fill="#7DCAAE"/>
<ellipse cx="1.318" cy="74.8988" rx="1.318" ry="1.32063" fill="#7DCAAE"/>
<ellipse cx="1.318" cy="79.804" rx="1.318" ry="1.32063" fill="#7DCAAE"/>
<ellipse cx="1.318" cy="84.7093" rx="1.318" ry="1.32063" fill="#7DCAAE"/>
<ellipse cx="1.318" cy="89.6145" rx="1.318" ry="1.32063" fill="#7DCAAE"/>
<ellipse cx="47.6373" cy="1.32063" rx="1.318" ry="1.32063" fill="#7DCAAE"/>
<ellipse cx="47.6373" cy="6.22591" rx="1.318" ry="1.32063" fill="#7DCAAE"/>
<ellipse cx="47.6373" cy="11.1311" rx="1.318" ry="1.32063" fill="#7DCAAE"/>
<ellipse cx="47.6373" cy="16.0363" rx="1.318" ry="1.32063" fill="#7DCAAE"/>
<ellipse cx="47.6373" cy="20.9414" rx="1.318" ry="1.32063" fill="#7DCAAE"/>
<ellipse cx="47.6373" cy="25.8467" rx="1.318" ry="1.32063" fill="#7DCAAE"/>
<ellipse cx="47.6373" cy="30.7519" rx="1.318" ry="1.32063" fill="#7DCAAE"/>
<ellipse cx="47.6373" cy="35.6571" rx="1.318" ry="1.32063" fill="#7DCAAE"/>
<ellipse cx="47.6373" cy="40.5623" rx="1.318" ry="1.32063" fill="#7DCAAE"/>
<ellipse cx="47.6373" cy="45.4676" rx="1.318" ry="1.32063" fill="#7DCAAE"/>
<ellipse cx="47.6373" cy="50.3728" rx="1.318" ry="1.32063" fill="#7DCAAE"/>
<ellipse cx="47.6373" cy="55.278" rx="1.318" ry="1.32063" fill="#7DCAAE"/>
<ellipse cx="47.6373" cy="60.1832" rx="1.318" ry="1.32063" fill="#7DCAAE"/>
<ellipse cx="47.6373" cy="65.0884" rx="1.318" ry="1.32063" fill="#7DCAAE"/>
<ellipse cx="47.6373" cy="69.9936" rx="1.318" ry="1.32063" fill="#7DCAAE"/>
<ellipse cx="47.6373" cy="74.8988" rx="1.318" ry="1.32063" fill="#7DCAAE"/>
<ellipse cx="47.6373" cy="79.804" rx="1.318" ry="1.32063" fill="#7DCAAE"/>
<ellipse cx="47.6373" cy="84.7093" rx="1.318" ry="1.32063" fill="#7DCAAE"/>
<ellipse cx="47.6373" cy="89.6145" rx="1.318" ry="1.32063" fill="#7DCAAE"/>
<ellipse cx="6.4012" cy="1.32063" rx="1.12971" ry="1.32063" fill="#7DCAAE"/>
<ellipse cx="6.4012" cy="6.22591" rx="1.12971" ry="1.32063" fill="#7DCAAE"/>
<ellipse cx="6.4012" cy="11.1311" rx="1.12971" ry="1.32063" fill="#7DCAAE"/>
<ellipse cx="6.4012" cy="16.0363" rx="1.12971" ry="1.32063" fill="#7DCAAE"/>
<ellipse cx="6.4012" cy="20.9414" rx="1.12971" ry="1.32063" fill="#7DCAAE"/>
<ellipse cx="6.4012" cy="25.8467" rx="1.12971" ry="1.32063" fill="#7DCAAE"/>
<ellipse cx="6.4012" cy="30.7519" rx="1.12971" ry="1.32063" fill="#7DCAAE"/>
<ellipse cx="6.4012" cy="35.6571" rx="1.12971" ry="1.32063" fill="#7DCAAE"/>
<ellipse cx="6.4012" cy="40.5623" rx="1.12971" ry="1.32063" fill="#7DCAAE"/>
<ellipse cx="6.4012" cy="45.4676" rx="1.12971" ry="1.32063" fill="#7DCAAE"/>
<ellipse cx="6.4012" cy="50.3728" rx="1.12971" ry="1.32063" fill="#7DCAAE"/>
<ellipse cx="6.4012" cy="55.278" rx="1.12971" ry="1.32063" fill="#7DCAAE"/>
<ellipse cx="6.4012" cy="60.1832" rx="1.12971" ry="1.32063" fill="#7DCAAE"/>
<ellipse cx="6.4012" cy="65.0884" rx="1.12971" ry="1.32063" fill="#7DCAAE"/>
<ellipse cx="6.4012" cy="69.9936" rx="1.12971" ry="1.32063" fill="#7DCAAE"/>
<ellipse cx="6.4012" cy="74.8988" rx="1.12971" ry="1.32063" fill="#7DCAAE"/>
<ellipse cx="6.4012" cy="79.804" rx="1.12971" ry="1.32063" fill="#7DCAAE"/>
<ellipse cx="6.4012" cy="84.7093" rx="1.12971" ry="1.32063" fill="#7DCAAE"/>
<ellipse cx="6.4012" cy="89.6145" rx="1.12971" ry="1.32063" fill="#7DCAAE"/>
<ellipse cx="11.485" cy="1.32063" rx="1.318" ry="1.32063" fill="#7DCAAE"/>
<ellipse cx="11.485" cy="6.22591" rx="1.318" ry="1.32063" fill="#7DCAAE"/>
<ellipse cx="11.485" cy="11.1311" rx="1.318" ry="1.32063" fill="#7DCAAE"/>
<ellipse cx="11.485" cy="16.0363" rx="1.318" ry="1.32063" fill="#7DCAAE"/>
<ellipse cx="11.485" cy="20.9414" rx="1.318" ry="1.32063" fill="#7DCAAE"/>
<ellipse cx="11.485" cy="25.8467" rx="1.318" ry="1.32063" fill="#7DCAAE"/>
<ellipse cx="11.485" cy="30.7519" rx="1.318" ry="1.32063" fill="#7DCAAE"/>
<ellipse cx="11.485" cy="35.6571" rx="1.318" ry="1.32063" fill="#7DCAAE"/>
<ellipse cx="11.485" cy="40.5623" rx="1.318" ry="1.32063" fill="#7DCAAE"/>
<ellipse cx="11.485" cy="45.4676" rx="1.318" ry="1.32063" fill="#7DCAAE"/>
<ellipse cx="11.485" cy="50.3728" rx="1.318" ry="1.32063" fill="#7DCAAE"/>
<ellipse cx="11.485" cy="55.278" rx="1.318" ry="1.32063" fill="#7DCAAE"/>
<ellipse cx="11.485" cy="60.1832" rx="1.318" ry="1.32063" fill="#7DCAAE"/>
<ellipse cx="11.485" cy="65.0884" rx="1.318" ry="1.32063" fill="#7DCAAE"/>
<ellipse cx="11.485" cy="69.9936" rx="1.318" ry="1.32063" fill="#7DCAAE"/>
<ellipse cx="11.485" cy="74.8988" rx="1.318" ry="1.32063" fill="#7DCAAE"/>
<ellipse cx="11.485" cy="79.804" rx="1.318" ry="1.32063" fill="#7DCAAE"/>
<ellipse cx="11.485" cy="84.7093" rx="1.318" ry="1.32063" fill="#7DCAAE"/>
<ellipse cx="11.485" cy="89.6145" rx="1.318" ry="1.32063" fill="#7DCAAE"/>
<ellipse cx="16.7584" cy="1.32063" rx="1.318" ry="1.32063" fill="#7DCAAE"/>
<ellipse cx="16.7584" cy="6.22591" rx="1.318" ry="1.32063" fill="#7DCAAE"/>
<ellipse cx="16.7584" cy="11.1311" rx="1.318" ry="1.32063" fill="#7DCAAE"/>
<ellipse cx="16.7584" cy="16.0363" rx="1.318" ry="1.32063" fill="#7DCAAE"/>
<ellipse cx="16.7584" cy="20.9414" rx="1.318" ry="1.32063" fill="#7DCAAE"/>
<ellipse cx="16.7584" cy="25.8467" rx="1.318" ry="1.32063" fill="#7DCAAE"/>
<ellipse cx="16.7584" cy="30.7519" rx="1.318" ry="1.32063" fill="#7DCAAE"/>
<ellipse cx="16.7584" cy="35.6571" rx="1.318" ry="1.32063" fill="#7DCAAE"/>
<ellipse cx="16.7584" cy="40.5623" rx="1.318" ry="1.32063" fill="#7DCAAE"/>
<ellipse cx="16.7584" cy="45.4676" rx="1.318" ry="1.32063" fill="#7DCAAE"/>
<ellipse cx="16.7584" cy="50.3728" rx="1.318" ry="1.32063" fill="#7DCAAE"/>
<ellipse cx="16.7584" cy="55.278" rx="1.318" ry="1.32063" fill="#7DCAAE"/>
<ellipse cx="16.7584" cy="60.1832" rx="1.318" ry="1.32063" fill="#7DCAAE"/>
<ellipse cx="16.7584" cy="65.0884" rx="1.318" ry="1.32063" fill="#7DCAAE"/>
<ellipse cx="16.7584" cy="69.9936" rx="1.318" ry="1.32063" fill="#7DCAAE"/>
<ellipse cx="16.7584" cy="74.8988" rx="1.318" ry="1.32063" fill="#7DCAAE"/>
<ellipse cx="16.7584" cy="79.804" rx="1.318" ry="1.32063" fill="#7DCAAE"/>
<ellipse cx="16.7584" cy="84.7093" rx="1.318" ry="1.32063" fill="#7DCAAE"/>
<ellipse cx="16.7584" cy="89.6145" rx="1.318" ry="1.32063" fill="#7DCAAE"/>
<ellipse cx="21.8416" cy="1.32063" rx="1.12971" ry="1.32063" fill="#7DCAAE"/>
<ellipse cx="21.8416" cy="6.22591" rx="1.12971" ry="1.32063" fill="#7DCAAE"/>
<ellipse cx="21.8416" cy="11.1311" rx="1.12971" ry="1.32063" fill="#7DCAAE"/>
<ellipse cx="21.8416" cy="16.0363" rx="1.12971" ry="1.32063" fill="#7DCAAE"/>
<ellipse cx="21.8416" cy="20.9414" rx="1.12971" ry="1.32063" fill="#7DCAAE"/>
<ellipse cx="21.8416" cy="25.8467" rx="1.12971" ry="1.32063" fill="#7DCAAE"/>
<ellipse cx="21.8416" cy="30.7519" rx="1.12971" ry="1.32063" fill="#7DCAAE"/>
<ellipse cx="21.8416" cy="35.6571" rx="1.12971" ry="1.32063" fill="#7DCAAE"/>
<ellipse cx="21.8416" cy="40.5623" rx="1.12971" ry="1.32063" fill="#7DCAAE"/>
<ellipse cx="21.8416" cy="45.4676" rx="1.12971" ry="1.32063" fill="#7DCAAE"/>
<ellipse cx="21.8416" cy="50.3728" rx="1.12971" ry="1.32063" fill="#7DCAAE"/>
<ellipse cx="21.8416" cy="55.278" rx="1.12971" ry="1.32063" fill="#7DCAAE"/>
<ellipse cx="21.8416" cy="60.1832" rx="1.12971" ry="1.32063" fill="#7DCAAE"/>
<ellipse cx="21.8416" cy="65.0884" rx="1.12971" ry="1.32063" fill="#7DCAAE"/>
<ellipse cx="21.8416" cy="69.9936" rx="1.12971" ry="1.32063" fill="#7DCAAE"/>
<ellipse cx="21.8416" cy="74.8988" rx="1.12971" ry="1.32063" fill="#7DCAAE"/>
<ellipse cx="21.8416" cy="79.804" rx="1.12971" ry="1.32063" fill="#7DCAAE"/>
<ellipse cx="21.8416" cy="84.7093" rx="1.12971" ry="1.32063" fill="#7DCAAE"/>
<ellipse cx="21.8416" cy="89.6145" rx="1.12971" ry="1.32063" fill="#7DCAAE"/>
<ellipse cx="26.9254" cy="1.32063" rx="1.318" ry="1.32063" fill="#7DCAAE"/>
<ellipse cx="26.9254" cy="6.22591" rx="1.318" ry="1.32063" fill="#7DCAAE"/>
<ellipse cx="26.9254" cy="11.1311" rx="1.318" ry="1.32063" fill="#7DCAAE"/>
<ellipse cx="26.9254" cy="16.0363" rx="1.318" ry="1.32063" fill="#7DCAAE"/>
<ellipse cx="26.9254" cy="20.9414" rx="1.318" ry="1.32063" fill="#7DCAAE"/>
<ellipse cx="26.9254" cy="25.8467" rx="1.318" ry="1.32063" fill="#7DCAAE"/>
<ellipse cx="26.9254" cy="30.7519" rx="1.318" ry="1.32063" fill="#7DCAAE"/>
<ellipse cx="26.9254" cy="35.6571" rx="1.318" ry="1.32063" fill="#7DCAAE"/>
<ellipse cx="26.9254" cy="40.5623" rx="1.318" ry="1.32063" fill="#7DCAAE"/>
<ellipse cx="26.9254" cy="45.4676" rx="1.318" ry="1.32063" fill="#7DCAAE"/>
<ellipse cx="26.9254" cy="50.3728" rx="1.318" ry="1.32063" fill="#7DCAAE"/>
<ellipse cx="26.9254" cy="55.278" rx="1.318" ry="1.32063" fill="#7DCAAE"/>
<ellipse cx="26.9254" cy="60.1832" rx="1.318" ry="1.32063" fill="#7DCAAE"/>
<ellipse cx="26.9254" cy="65.0884" rx="1.318" ry="1.32063" fill="#7DCAAE"/>
<ellipse cx="26.9254" cy="69.9936" rx="1.318" ry="1.32063" fill="#7DCAAE"/>
<ellipse cx="26.9254" cy="74.8988" rx="1.318" ry="1.32063" fill="#7DCAAE"/>
<ellipse cx="26.9254" cy="79.804" rx="1.318" ry="1.32063" fill="#7DCAAE"/>
<ellipse cx="26.9254" cy="84.7093" rx="1.318" ry="1.32063" fill="#7DCAAE"/>
<ellipse cx="26.9254" cy="89.6145" rx="1.318" ry="1.32063" fill="#7DCAAE"/>
<ellipse cx="32.1979" cy="1.32063" rx="1.318" ry="1.32063" fill="#7DCAAE"/>
<ellipse cx="32.1979" cy="6.22591" rx="1.318" ry="1.32063" fill="#7DCAAE"/>
<ellipse cx="32.1979" cy="11.1311" rx="1.318" ry="1.32063" fill="#7DCAAE"/>
<ellipse cx="32.1979" cy="16.0363" rx="1.318" ry="1.32063" fill="#7DCAAE"/>
<ellipse cx="32.1979" cy="20.9414" rx="1.318" ry="1.32063" fill="#7DCAAE"/>
<ellipse cx="32.1979" cy="25.8467" rx="1.318" ry="1.32063" fill="#7DCAAE"/>
<ellipse cx="32.1979" cy="30.7519" rx="1.318" ry="1.32063" fill="#7DCAAE"/>
<ellipse cx="32.1979" cy="35.6571" rx="1.318" ry="1.32063" fill="#7DCAAE"/>
<ellipse cx="32.1979" cy="40.5623" rx="1.318" ry="1.32063" fill="#7DCAAE"/>
<ellipse cx="32.1979" cy="45.4676" rx="1.318" ry="1.32063" fill="#7DCAAE"/>
<ellipse cx="32.1979" cy="50.3728" rx="1.318" ry="1.32063" fill="#7DCAAE"/>
<ellipse cx="32.1979" cy="55.278" rx="1.318" ry="1.32063" fill="#7DCAAE"/>
<ellipse cx="32.1979" cy="60.1832" rx="1.318" ry="1.32063" fill="#7DCAAE"/>
<ellipse cx="32.1979" cy="65.0884" rx="1.318" ry="1.32063" fill="#7DCAAE"/>
<ellipse cx="32.1979" cy="69.9936" rx="1.318" ry="1.32063" fill="#7DCAAE"/>
<ellipse cx="32.1979" cy="74.8988" rx="1.318" ry="1.32063" fill="#7DCAAE"/>
<ellipse cx="32.1979" cy="79.804" rx="1.318" ry="1.32063" fill="#7DCAAE"/>
<ellipse cx="32.1979" cy="84.7093" rx="1.318" ry="1.32063" fill="#7DCAAE"/>
<ellipse cx="32.1979" cy="89.6145" rx="1.318" ry="1.32063" fill="#7DCAAE"/>
<ellipse cx="37.2801" cy="1.32063" rx="1.12971" ry="1.32063" fill="#7DCAAE"/>
<ellipse cx="37.2801" cy="6.22591" rx="1.12971" ry="1.32063" fill="#7DCAAE"/>
<ellipse cx="37.2801" cy="11.1311" rx="1.12971" ry="1.32063" fill="#7DCAAE"/>
<ellipse cx="37.2801" cy="16.0363" rx="1.12971" ry="1.32063" fill="#7DCAAE"/>
<ellipse cx="37.2801" cy="20.9414" rx="1.12971" ry="1.32063" fill="#7DCAAE"/>
<ellipse cx="37.2801" cy="25.8467" rx="1.12971" ry="1.32063" fill="#7DCAAE"/>
<ellipse cx="37.2801" cy="30.7519" rx="1.12971" ry="1.32063" fill="#7DCAAE"/>
<ellipse cx="37.2801" cy="35.6571" rx="1.12971" ry="1.32063" fill="#7DCAAE"/>
<ellipse cx="37.2801" cy="40.5623" rx="1.12971" ry="1.32063" fill="#7DCAAE"/>
<ellipse cx="37.2801" cy="45.4676" rx="1.12971" ry="1.32063" fill="#7DCAAE"/>
<ellipse cx="37.2801" cy="50.3728" rx="1.12971" ry="1.32063" fill="#7DCAAE"/>
<ellipse cx="37.2801" cy="55.278" rx="1.12971" ry="1.32063" fill="#7DCAAE"/>
<ellipse cx="37.2801" cy="60.1832" rx="1.12971" ry="1.32063" fill="#7DCAAE"/>
<ellipse cx="37.2801" cy="65.0884" rx="1.12971" ry="1.32063" fill="#7DCAAE"/>
<ellipse cx="37.2801" cy="69.9936" rx="1.12971" ry="1.32063" fill="#7DCAAE"/>
<ellipse cx="37.2801" cy="74.8988" rx="1.12971" ry="1.32063" fill="#7DCAAE"/>
<ellipse cx="37.2801" cy="79.804" rx="1.12971" ry="1.32063" fill="#7DCAAE"/>
<ellipse cx="37.2801" cy="84.7093" rx="1.12971" ry="1.32063" fill="#7DCAAE"/>
<ellipse cx="37.2801" cy="89.6145" rx="1.12971" ry="1.32063" fill="#7DCAAE"/>
<ellipse cx="42.3649" cy="1.32063" rx="1.318" ry="1.32063" fill="#7DCAAE"/>
<ellipse cx="42.3649" cy="6.22591" rx="1.318" ry="1.32063" fill="#7DCAAE"/>
<ellipse cx="42.3649" cy="11.1311" rx="1.318" ry="1.32063" fill="#7DCAAE"/>
<ellipse cx="42.3649" cy="16.0363" rx="1.318" ry="1.32063" fill="#7DCAAE"/>
<ellipse cx="42.3649" cy="20.9414" rx="1.318" ry="1.32063" fill="#7DCAAE"/>
<ellipse cx="42.3649" cy="25.8467" rx="1.318" ry="1.32063" fill="#7DCAAE"/>
<ellipse cx="42.3649" cy="30.7519" rx="1.318" ry="1.32063" fill="#7DCAAE"/>
<ellipse cx="42.3649" cy="35.6571" rx="1.318" ry="1.32063" fill="#7DCAAE"/>
<ellipse cx="42.3649" cy="40.5623" rx="1.318" ry="1.32063" fill="#7DCAAE"/>
<ellipse cx="42.3649" cy="45.4676" rx="1.318" ry="1.32063" fill="#7DCAAE"/>
<ellipse cx="42.3649" cy="50.3728" rx="1.318" ry="1.32063" fill="#7DCAAE"/>
<ellipse cx="42.3649" cy="55.278" rx="1.318" ry="1.32063" fill="#7DCAAE"/>
<ellipse cx="42.3649" cy="60.1832" rx="1.318" ry="1.32063" fill="#7DCAAE"/>
<ellipse cx="42.3649" cy="65.0884" rx="1.318" ry="1.32063" fill="#7DCAAE"/>
<ellipse cx="42.3649" cy="69.9936" rx="1.318" ry="1.32063" fill="#7DCAAE"/>
<ellipse cx="42.3649" cy="74.8988" rx="1.318" ry="1.32063" fill="#7DCAAE"/>
<ellipse cx="42.3649" cy="79.804" rx="1.318" ry="1.32063" fill="#7DCAAE"/>
<ellipse cx="42.3649" cy="84.7093" rx="1.318" ry="1.32063" fill="#7DCAAE"/>
<ellipse cx="42.3649" cy="89.6145" rx="1.318" ry="1.32063" fill="#7DCAAE"/>
</g>
</svg>
