<svg width="52" height="53" viewBox="0 0 52 53" fill="none" xmlns="http://www.w3.org/2000/svg">
<circle opacity="0.5" cx="26" cy="26.5144" r="26" fill="white"/>
<path d="M23.0425 39.51C21.6645 39.51 20.3667 38.9727 19.3917 37.9999C18.4145 37.0249 17.875 35.727 17.875 34.3447V18.6797C17.875 17.4274 18.3278 16.2184 19.1533 15.2737C20.1348 14.1535 21.5518 13.5122 23.0447 13.5122C24.297 13.5122 25.5038 13.965 26.4463 14.7905L38.4453 25.2924C38.7985 25.6 39 26.0464 39 26.5144C39 26.9845 38.7963 27.4287 38.4432 27.7385L26.4463 38.2339C25.5038 39.0572 24.297 39.51 23.049 39.51H23.0425Z" fill="#314F7D"/>
</svg>
