<svg xmlns="http://www.w3.org/2000/svg" width="88" height="88" fill="none" viewBox="0 0 88 88">
    <g clip-path="url(#clip0)">
        <path fill="#E5E5E5" d="M2.044 88c-.494 0-.974-.195-1.331-.556-.47-.475-.651-1.165-.475-1.81L5.96 64.742C2.398 58.302.52 51.016.522 43.62.532 19.568 20.106 0 44.156 0c11.666.005 22.627 4.549 30.865 12.793C83.26 21.04 87.793 32 87.79 43.655c-.01 24.053-19.585 43.622-43.634 43.622h-.018c-7.025-.003-13.99-1.715-20.19-4.958L2.519 87.94c-.157.04-.317.061-.475.061z"/>
        <path fill="#fff" d="M2.044 86.127L7.97 64.493C4.314 58.162 2.392 50.98 2.395 43.621 2.405 20.6 21.137 1.873 44.156 1.873c11.171.004 21.656 4.352 29.54 12.244 7.885 7.891 12.225 18.38 12.221 29.537-.01 23.02-18.745 41.75-41.76 41.75-.002 0 0 0 0 0h-.019c-6.989-.002-13.856-1.755-19.955-5.082L2.044 86.127zm23.164-13.363l1.268.752c5.328 3.162 11.437 4.834 17.667 4.837h.013c19.13 0 34.702-15.568 34.71-34.701.003-9.273-3.603-17.992-10.157-24.551-6.554-6.559-15.268-10.173-24.54-10.177-19.146 0-34.716 15.566-34.723 34.7-.003 6.556 1.831 12.941 5.306 18.466l.826 1.314-3.507 12.804 13.137-3.444z"/>
        <g filter="url(#filter0_i)">
            <path fill="url(#paint0_linear)" d="M3.497 84.67l5.72-20.886c-3.53-6.113-5.385-13.047-5.383-20.15C3.843 21.411 21.928 3.331 44.15 3.331c10.785.005 20.908 4.203 28.518 11.82 7.612 7.62 11.802 17.746 11.797 28.515C84.456 65.889 66.37 83.97 44.151 83.97c-.002 0 0 0 0 0h-.018c-6.747-.003-13.377-1.696-19.265-4.905L3.497 84.67z"/>
        </g>
        <path fill="#fff" d="M2.044 86.127L7.97 64.493C4.314 58.162 2.392 50.98 2.395 43.621 2.405 20.6 21.137 1.873 44.156 1.873c11.171.004 21.656 4.352 29.54 12.244 7.885 7.891 12.225 18.38 12.221 29.537-.01 23.02-18.745 41.75-41.76 41.75-.002 0 0 0 0 0h-.019c-6.989-.002-13.856-1.755-19.955-5.082L2.044 86.127zm23.164-13.363l1.268.752c5.328 3.162 11.437 4.834 17.667 4.837h.013c19.13 0 34.702-15.568 34.71-34.701.003-9.273-3.603-17.992-10.157-24.551-6.554-6.559-15.268-10.173-24.54-10.177-19.146 0-34.716 15.566-34.723 34.7-.003 6.556 1.831 12.941 5.306 18.466l.826 1.314-3.507 12.804 13.137-3.444z"/>
        <path fill="#fff" fill-rule="evenodd" d="M33.72 26.167c-.782-1.737-1.606-1.772-2.35-1.802-.608-.027-1.304-.025-1.999-.025-.695 0-1.826.262-2.782 1.306-.957 1.044-3.653 3.568-3.653 8.702 0 5.135 3.74 10.096 4.261 10.793.522.696 7.219 11.568 17.825 15.751 8.815 3.476 10.608 2.785 12.521 2.611 1.914-.174 6.174-2.524 7.043-4.96.87-2.437.87-4.525.609-4.962-.261-.435-.957-.696-2-1.218-1.043-.521-6.173-3.046-7.13-3.394-.957-.349-1.652-.522-2.348.523-.696 1.043-2.694 3.393-3.303 4.089-.61.697-1.218.784-2.261.262-1.044-.523-4.405-1.624-8.392-5.179-3.101-2.765-5.196-6.181-5.805-7.226-.608-1.043-.01-1.559.459-2.129.843-1.026 2.26-2.872 2.607-3.568.348-.697.174-1.306-.086-1.828-.261-.522-2.29-5.682-3.217-7.746z" clip-rule="evenodd"/>
    </g>
    <defs>
        <linearGradient id="paint0_linear" x1="43.98" x2="44" y1="3.331" y2="85" gradientUnits="userSpaceOnUse">
            <stop stop-color="#7FD077"/>
            <stop offset="1" stop-color="#58B04F"/>
        </linearGradient>
        <clipPath id="clip0">
            <path fill="#fff" d="M0 0H88V88H0z"/>
        </clipPath>
        <filter id="filter0_i" width="80.968" height="81.338" x="3.497" y="3.331" color-interpolation-filters="sRGB" filterUnits="userSpaceOnUse">
            <feFlood flood-opacity="0" result="BackgroundImageFix"/>
            <feBlend in="SourceGraphic" in2="BackgroundImageFix" result="shape"/>
            <feColorMatrix in="SourceAlpha" result="hardAlpha" values="0 0 0 0 0 0 0 0 0 0 0 0 0 0 0 0 0 0 127 0"/>
            <feOffset/>
            <feGaussianBlur stdDeviation="5"/>
            <feComposite in2="hardAlpha" k2="-1" k3="1" operator="arithmetic"/>
            <feColorMatrix values="0 0 0 0 0 0 0 0 0 0 0 0 0 0 0 0 0 0 1 0"/>
            <feBlend in2="shape" result="effect1_innerShadow"/>
        </filter>
    </defs>
</svg>
