<svg width="170" height="389" viewBox="0 0 170 389" fill="none" xmlns="http://www.w3.org/2000/svg">
<g opacity="0.3">
<ellipse cx="5.63811" cy="5.64938" rx="5.63811" ry="5.64938" fill="#7DCAAE"/>
<ellipse cx="5.63811" cy="26.6329" rx="5.63811" ry="5.64938" fill="#7DCAAE"/>
<ellipse cx="5.63811" cy="47.6161" rx="5.63811" ry="5.64938" fill="#7DCAAE"/>
<ellipse cx="5.63811" cy="68.5996" rx="5.63811" ry="5.64938" fill="#7DCAAE"/>
<ellipse cx="5.63811" cy="89.5828" rx="5.63811" ry="5.64938" fill="#7DCAAE"/>
<ellipse cx="5.63811" cy="110.566" rx="5.63811" ry="5.64938" fill="#7DCAAE"/>
<ellipse cx="5.63811" cy="131.55" rx="5.63811" ry="5.64938" fill="#7DCAAE"/>
<ellipse cx="5.63811" cy="152.533" rx="5.63811" ry="5.64938" fill="#7DCAAE"/>
<ellipse cx="5.63811" cy="173.517" rx="5.63811" ry="5.64938" fill="#7DCAAE"/>
<ellipse cx="5.63811" cy="194.5" rx="5.63811" ry="5.64938" fill="#7DCAAE"/>
<ellipse cx="5.63811" cy="215.483" rx="5.63811" ry="5.64938" fill="#7DCAAE"/>
<ellipse cx="5.63811" cy="236.467" rx="5.63811" ry="5.64938" fill="#7DCAAE"/>
<ellipse cx="5.63811" cy="257.45" rx="5.63811" ry="5.64938" fill="#7DCAAE"/>
<ellipse cx="5.63811" cy="278.434" rx="5.63811" ry="5.64938" fill="#7DCAAE"/>
<ellipse cx="5.63811" cy="299.417" rx="5.63811" ry="5.64938" fill="#7DCAAE"/>
<ellipse cx="5.63811" cy="320.4" rx="5.63811" ry="5.64938" fill="#7DCAAE"/>
<ellipse cx="5.63811" cy="341.384" rx="5.63811" ry="5.64938" fill="#7DCAAE"/>
<ellipse cx="5.63811" cy="362.367" rx="5.63811" ry="5.64938" fill="#7DCAAE"/>
<ellipse cx="5.63811" cy="383.351" rx="5.63811" ry="5.64938" fill="#7DCAAE"/>
<ellipse cx="27.3844" cy="5.64938" rx="4.83266" ry="5.64938" fill="#7DCAAE"/>
<ellipse cx="27.3844" cy="26.6329" rx="4.83266" ry="5.64938" fill="#7DCAAE"/>
<ellipse cx="27.3844" cy="47.6161" rx="4.83266" ry="5.64938" fill="#7DCAAE"/>
<ellipse cx="27.3844" cy="68.5996" rx="4.83266" ry="5.64938" fill="#7DCAAE"/>
<ellipse cx="27.3844" cy="89.5828" rx="4.83266" ry="5.64938" fill="#7DCAAE"/>
<ellipse cx="27.3844" cy="110.566" rx="4.83266" ry="5.64938" fill="#7DCAAE"/>
<ellipse cx="27.3844" cy="131.55" rx="4.83266" ry="5.64938" fill="#7DCAAE"/>
<ellipse cx="27.3844" cy="152.533" rx="4.83266" ry="5.64938" fill="#7DCAAE"/>
<ellipse cx="27.3844" cy="173.517" rx="4.83266" ry="5.64938" fill="#7DCAAE"/>
<ellipse cx="27.3844" cy="194.5" rx="4.83266" ry="5.64938" fill="#7DCAAE"/>
<ellipse cx="27.3844" cy="215.483" rx="4.83266" ry="5.64938" fill="#7DCAAE"/>
<ellipse cx="27.3844" cy="236.467" rx="4.83266" ry="5.64938" fill="#7DCAAE"/>
<ellipse cx="27.3844" cy="257.45" rx="4.83266" ry="5.64938" fill="#7DCAAE"/>
<ellipse cx="27.3844" cy="278.434" rx="4.83266" ry="5.64938" fill="#7DCAAE"/>
<ellipse cx="27.3844" cy="299.417" rx="4.83266" ry="5.64938" fill="#7DCAAE"/>
<ellipse cx="27.3844" cy="320.4" rx="4.83266" ry="5.64938" fill="#7DCAAE"/>
<ellipse cx="27.3844" cy="341.384" rx="4.83266" ry="5.64938" fill="#7DCAAE"/>
<ellipse cx="27.3844" cy="362.367" rx="4.83266" ry="5.64938" fill="#7DCAAE"/>
<ellipse cx="27.3844" cy="383.351" rx="4.83266" ry="5.64938" fill="#7DCAAE"/>
<ellipse cx="49.1303" cy="5.64938" rx="5.63811" ry="5.64938" fill="#7DCAAE"/>
<ellipse cx="49.1303" cy="26.6329" rx="5.63811" ry="5.64938" fill="#7DCAAE"/>
<ellipse cx="49.1303" cy="47.6161" rx="5.63811" ry="5.64938" fill="#7DCAAE"/>
<ellipse cx="49.1303" cy="68.5996" rx="5.63811" ry="5.64938" fill="#7DCAAE"/>
<ellipse cx="49.1303" cy="89.5828" rx="5.63811" ry="5.64938" fill="#7DCAAE"/>
<ellipse cx="49.1303" cy="110.566" rx="5.63811" ry="5.64938" fill="#7DCAAE"/>
<ellipse cx="49.1303" cy="131.55" rx="5.63811" ry="5.64938" fill="#7DCAAE"/>
<ellipse cx="49.1303" cy="152.533" rx="5.63811" ry="5.64938" fill="#7DCAAE"/>
<ellipse cx="49.1303" cy="173.517" rx="5.63811" ry="5.64938" fill="#7DCAAE"/>
<ellipse cx="49.1303" cy="194.5" rx="5.63811" ry="5.64938" fill="#7DCAAE"/>
<ellipse cx="49.1303" cy="215.483" rx="5.63811" ry="5.64938" fill="#7DCAAE"/>
<ellipse cx="49.1303" cy="236.467" rx="5.63811" ry="5.64938" fill="#7DCAAE"/>
<ellipse cx="49.1303" cy="257.45" rx="5.63811" ry="5.64938" fill="#7DCAAE"/>
<ellipse cx="49.1303" cy="278.434" rx="5.63811" ry="5.64938" fill="#7DCAAE"/>
<ellipse cx="49.1303" cy="299.417" rx="5.63811" ry="5.64938" fill="#7DCAAE"/>
<ellipse cx="49.1303" cy="320.4" rx="5.63811" ry="5.64938" fill="#7DCAAE"/>
<ellipse cx="49.1303" cy="341.384" rx="5.63811" ry="5.64938" fill="#7DCAAE"/>
<ellipse cx="49.1303" cy="362.367" rx="5.63811" ry="5.64938" fill="#7DCAAE"/>
<ellipse cx="49.1303" cy="383.351" rx="5.63811" ry="5.64938" fill="#7DCAAE"/>
<ellipse cx="71.6879" cy="5.64938" rx="5.63811" ry="5.64938" fill="#7DCAAE"/>
<ellipse cx="71.6879" cy="26.6329" rx="5.63811" ry="5.64938" fill="#7DCAAE"/>
<ellipse cx="71.6879" cy="47.6161" rx="5.63811" ry="5.64938" fill="#7DCAAE"/>
<ellipse cx="71.6879" cy="68.5996" rx="5.63811" ry="5.64938" fill="#7DCAAE"/>
<ellipse cx="71.6879" cy="89.5828" rx="5.63811" ry="5.64938" fill="#7DCAAE"/>
<ellipse cx="71.6879" cy="110.566" rx="5.63811" ry="5.64938" fill="#7DCAAE"/>
<ellipse cx="71.6879" cy="131.55" rx="5.63811" ry="5.64938" fill="#7DCAAE"/>
<ellipse cx="71.6879" cy="152.533" rx="5.63811" ry="5.64938" fill="#7DCAAE"/>
<ellipse cx="71.6879" cy="173.517" rx="5.63811" ry="5.64938" fill="#7DCAAE"/>
<ellipse cx="71.6879" cy="194.5" rx="5.63811" ry="5.64938" fill="#7DCAAE"/>
<ellipse cx="71.6879" cy="215.483" rx="5.63811" ry="5.64938" fill="#7DCAAE"/>
<ellipse cx="71.6879" cy="236.467" rx="5.63811" ry="5.64938" fill="#7DCAAE"/>
<ellipse cx="71.6879" cy="257.45" rx="5.63811" ry="5.64938" fill="#7DCAAE"/>
<ellipse cx="71.6879" cy="278.434" rx="5.63811" ry="5.64938" fill="#7DCAAE"/>
<ellipse cx="71.6879" cy="299.417" rx="5.63811" ry="5.64938" fill="#7DCAAE"/>
<ellipse cx="71.6879" cy="320.4" rx="5.63811" ry="5.64938" fill="#7DCAAE"/>
<ellipse cx="71.6879" cy="341.384" rx="5.63811" ry="5.64938" fill="#7DCAAE"/>
<ellipse cx="71.6879" cy="362.367" rx="5.63811" ry="5.64938" fill="#7DCAAE"/>
<ellipse cx="71.6879" cy="383.351" rx="5.63811" ry="5.64938" fill="#7DCAAE"/>
<ellipse cx="93.4342" cy="5.64938" rx="4.83266" ry="5.64938" fill="#7DCAAE"/>
<ellipse cx="93.4342" cy="26.6329" rx="4.83266" ry="5.64938" fill="#7DCAAE"/>
<ellipse cx="93.4342" cy="47.6161" rx="4.83266" ry="5.64938" fill="#7DCAAE"/>
<ellipse cx="93.4342" cy="68.5996" rx="4.83266" ry="5.64938" fill="#7DCAAE"/>
<ellipse cx="93.4342" cy="89.5828" rx="4.83266" ry="5.64938" fill="#7DCAAE"/>
<ellipse cx="93.4342" cy="110.566" rx="4.83266" ry="5.64938" fill="#7DCAAE"/>
<ellipse cx="93.4342" cy="131.55" rx="4.83266" ry="5.64938" fill="#7DCAAE"/>
<ellipse cx="93.4342" cy="152.533" rx="4.83266" ry="5.64938" fill="#7DCAAE"/>
<ellipse cx="93.4342" cy="173.517" rx="4.83266" ry="5.64938" fill="#7DCAAE"/>
<ellipse cx="93.4342" cy="194.5" rx="4.83266" ry="5.64938" fill="#7DCAAE"/>
<ellipse cx="93.4342" cy="215.483" rx="4.83266" ry="5.64938" fill="#7DCAAE"/>
<ellipse cx="93.4342" cy="236.467" rx="4.83266" ry="5.64938" fill="#7DCAAE"/>
<ellipse cx="93.4342" cy="257.45" rx="4.83266" ry="5.64938" fill="#7DCAAE"/>
<ellipse cx="93.4342" cy="278.434" rx="4.83266" ry="5.64938" fill="#7DCAAE"/>
<ellipse cx="93.4342" cy="299.417" rx="4.83266" ry="5.64938" fill="#7DCAAE"/>
<ellipse cx="93.4342" cy="320.4" rx="4.83266" ry="5.64938" fill="#7DCAAE"/>
<ellipse cx="93.4342" cy="341.384" rx="4.83266" ry="5.64938" fill="#7DCAAE"/>
<ellipse cx="93.4342" cy="362.367" rx="4.83266" ry="5.64938" fill="#7DCAAE"/>
<ellipse cx="93.4342" cy="383.351" rx="4.83266" ry="5.64938" fill="#7DCAAE"/>
<ellipse cx="115.181" cy="5.64938" rx="5.63811" ry="5.64938" fill="#7DCAAE"/>
<ellipse cx="115.181" cy="26.6329" rx="5.63811" ry="5.64938" fill="#7DCAAE"/>
<ellipse cx="115.181" cy="47.6161" rx="5.63811" ry="5.64938" fill="#7DCAAE"/>
<ellipse cx="115.181" cy="68.5996" rx="5.63811" ry="5.64938" fill="#7DCAAE"/>
<ellipse cx="115.181" cy="89.5828" rx="5.63811" ry="5.64938" fill="#7DCAAE"/>
<ellipse cx="115.181" cy="110.566" rx="5.63811" ry="5.64938" fill="#7DCAAE"/>
<ellipse cx="115.181" cy="131.55" rx="5.63811" ry="5.64938" fill="#7DCAAE"/>
<ellipse cx="115.181" cy="152.533" rx="5.63811" ry="5.64938" fill="#7DCAAE"/>
<ellipse cx="115.181" cy="173.517" rx="5.63811" ry="5.64938" fill="#7DCAAE"/>
<ellipse cx="115.181" cy="194.5" rx="5.63811" ry="5.64938" fill="#7DCAAE"/>
<ellipse cx="115.181" cy="215.483" rx="5.63811" ry="5.64938" fill="#7DCAAE"/>
<ellipse cx="115.181" cy="236.467" rx="5.63811" ry="5.64938" fill="#7DCAAE"/>
<ellipse cx="115.181" cy="257.45" rx="5.63811" ry="5.64938" fill="#7DCAAE"/>
<ellipse cx="115.181" cy="278.434" rx="5.63811" ry="5.64938" fill="#7DCAAE"/>
<ellipse cx="115.181" cy="299.417" rx="5.63811" ry="5.64938" fill="#7DCAAE"/>
<ellipse cx="115.181" cy="320.4" rx="5.63811" ry="5.64938" fill="#7DCAAE"/>
<ellipse cx="115.181" cy="341.384" rx="5.63811" ry="5.64938" fill="#7DCAAE"/>
<ellipse cx="115.181" cy="362.367" rx="5.63811" ry="5.64938" fill="#7DCAAE"/>
<ellipse cx="115.181" cy="383.351" rx="5.63811" ry="5.64938" fill="#7DCAAE"/>
<ellipse cx="137.733" cy="5.64938" rx="5.63811" ry="5.64938" fill="#7DCAAE"/>
<ellipse cx="137.733" cy="26.6329" rx="5.63811" ry="5.64938" fill="#7DCAAE"/>
<ellipse cx="137.733" cy="47.6161" rx="5.63811" ry="5.64938" fill="#7DCAAE"/>
<ellipse cx="137.733" cy="68.5996" rx="5.63811" ry="5.64938" fill="#7DCAAE"/>
<ellipse cx="137.733" cy="89.5828" rx="5.63811" ry="5.64938" fill="#7DCAAE"/>
<ellipse cx="137.733" cy="110.566" rx="5.63811" ry="5.64938" fill="#7DCAAE"/>
<ellipse cx="137.733" cy="131.55" rx="5.63811" ry="5.64938" fill="#7DCAAE"/>
<ellipse cx="137.733" cy="152.533" rx="5.63811" ry="5.64938" fill="#7DCAAE"/>
<ellipse cx="137.733" cy="173.517" rx="5.63811" ry="5.64938" fill="#7DCAAE"/>
<ellipse cx="137.733" cy="194.5" rx="5.63811" ry="5.64938" fill="#7DCAAE"/>
<ellipse cx="137.733" cy="215.483" rx="5.63811" ry="5.64938" fill="#7DCAAE"/>
<ellipse cx="137.733" cy="236.467" rx="5.63811" ry="5.64938" fill="#7DCAAE"/>
<ellipse cx="137.733" cy="257.45" rx="5.63811" ry="5.64938" fill="#7DCAAE"/>
<ellipse cx="137.733" cy="278.434" rx="5.63811" ry="5.64938" fill="#7DCAAE"/>
<ellipse cx="137.733" cy="299.417" rx="5.63811" ry="5.64938" fill="#7DCAAE"/>
<ellipse cx="137.733" cy="320.4" rx="5.63811" ry="5.64938" fill="#7DCAAE"/>
<ellipse cx="137.733" cy="341.384" rx="5.63811" ry="5.64938" fill="#7DCAAE"/>
<ellipse cx="137.733" cy="362.367" rx="5.63811" ry="5.64938" fill="#7DCAAE"/>
<ellipse cx="137.733" cy="383.351" rx="5.63811" ry="5.64938" fill="#7DCAAE"/>
<ellipse cx="159.476" cy="5.64938" rx="4.83266" ry="5.64938" fill="#7DCAAE"/>
<ellipse cx="159.476" cy="26.6329" rx="4.83266" ry="5.64938" fill="#7DCAAE"/>
<ellipse cx="159.476" cy="47.6161" rx="4.83266" ry="5.64938" fill="#7DCAAE"/>
<ellipse cx="159.476" cy="68.5996" rx="4.83266" ry="5.64938" fill="#7DCAAE"/>
<ellipse cx="159.476" cy="89.5828" rx="4.83266" ry="5.64938" fill="#7DCAAE"/>
<ellipse cx="159.476" cy="110.566" rx="4.83266" ry="5.64938" fill="#7DCAAE"/>
<ellipse cx="159.476" cy="131.55" rx="4.83266" ry="5.64938" fill="#7DCAAE"/>
<ellipse cx="159.476" cy="152.533" rx="4.83266" ry="5.64938" fill="#7DCAAE"/>
<ellipse cx="159.476" cy="173.517" rx="4.83266" ry="5.64938" fill="#7DCAAE"/>
<ellipse cx="159.476" cy="194.5" rx="4.83266" ry="5.64938" fill="#7DCAAE"/>
<ellipse cx="159.476" cy="215.483" rx="4.83266" ry="5.64938" fill="#7DCAAE"/>
<ellipse cx="159.476" cy="236.467" rx="4.83266" ry="5.64938" fill="#7DCAAE"/>
<ellipse cx="159.476" cy="257.45" rx="4.83266" ry="5.64938" fill="#7DCAAE"/>
<ellipse cx="159.476" cy="278.434" rx="4.83266" ry="5.64938" fill="#7DCAAE"/>
<ellipse cx="159.476" cy="299.417" rx="4.83266" ry="5.64938" fill="#7DCAAE"/>
<ellipse cx="159.476" cy="320.4" rx="4.83266" ry="5.64938" fill="#7DCAAE"/>
<ellipse cx="159.476" cy="341.384" rx="4.83266" ry="5.64938" fill="#7DCAAE"/>
<ellipse cx="159.476" cy="362.367" rx="4.83266" ry="5.64938" fill="#7DCAAE"/>
<ellipse cx="159.476" cy="383.351" rx="4.83266" ry="5.64938" fill="#7DCAAE"/>
</g>
</svg>
